<?xml version="1.0" encoding="UTF-8"?>
<!DOCTYPE svg PUBLIC "-//W3C//DTD SVG 1.1//EN" "http://www.w3.org/Graphics/SVG/1.1/DTD/svg11.dtd">
<svg xmlns="http://www.w3.org/2000/svg" version="1.1" width="636px" height="358px" style="shape-rendering:geometricPrecision; text-rendering:geometricPrecision; image-rendering:optimizeQuality; fill-rule:evenodd; clip-rule:evenodd" xmlns:xlink="http://www.w3.org/1999/xlink">
<g><path style="opacity:0.888" fill="#161616" d="M 353.5,126.5 C 354.105,128.481 355.105,128.815 356.5,127.5C 358.017,127.511 359.184,128.177 360,129.5C 363.717,136.467 362.217,141.967 355.5,146C 348.991,147.412 344.325,145.079 341.5,139C 342.213,136.174 342.88,133.34 343.5,130.5C 345.993,130.869 346.66,130.203 345.5,128.5C 347.913,126.949 350.579,126.283 353.5,126.5 Z"/></g>
<g><path style="opacity:0.136" fill="#eeeeee" d="M 353.5,126.5 C 354.791,126.263 355.791,126.596 356.5,127.5C 355.105,128.815 354.105,128.481 353.5,126.5 Z"/></g>
<g><path style="opacity:0.926" fill="#0e0e0e" d="M 218.5,127.5 C 217.931,157.833 217.764,188.167 218,218.5C 218.232,217.263 218.732,216.263 219.5,215.5C 219.5,216.833 219.5,218.167 219.5,219.5C 214.821,219.666 210.155,219.499 205.5,219C 204.107,217.829 203.273,216.329 203,214.5C 200.125,217.463 196.625,219.296 192.5,220C 169.635,221.973 157.301,211.473 155.5,188.5C 157.96,163.202 171.627,153.035 196.5,158C 199.102,158.883 201.269,160.383 203,162.5C 203.49,161.207 203.657,159.873 203.5,158.5C 204.493,150.35 204.826,142.017 204.5,133.5C 204.5,131.5 204.5,129.5 204.5,127.5C 209.167,127.5 213.833,127.5 218.5,127.5 Z M 202.5,198.5 C 201.167,199.167 200.167,200.167 199.5,201.5C 190.127,208.806 181.627,207.806 174,198.5C 168.631,186.272 171.797,177.106 183.5,171C 193.452,169.288 200.286,173.121 204,182.5C 204.93,188.014 204.43,193.348 202.5,198.5 Z"/></g>
<g><path style="opacity:0.938" fill="#0f0f0f" d="M 417.5,127.5 C 422.167,127.5 426.833,127.5 431.5,127.5C 430.832,158.179 430.832,188.846 431.5,219.5C 425.121,220.222 419.121,219.222 413.5,216.5C 393.178,225.415 378.678,219.748 370,199.5C 365.861,184.211 369.694,171.377 381.5,161C 386.361,157.768 391.694,156.268 397.5,156.5C 398.5,157.833 399.5,157.833 400.5,156.5C 404.694,156.177 408.527,157.177 412,159.5C 413.992,158.672 415.492,157.339 416.5,155.5C 417.222,155.082 417.722,154.416 418,153.5C 418.802,144.755 418.636,136.088 417.5,127.5 Z M 406.5,205.5 C 405.508,205.328 404.842,205.662 404.5,206.5C 402.167,206.5 399.833,206.5 397.5,206.5C 397.158,205.662 396.492,205.328 395.5,205.5C 386.564,200.962 382.897,193.628 384.5,183.5C 385.338,183.158 385.672,182.492 385.5,181.5C 389.248,172.611 395.914,169.111 405.5,171C 415.24,175.31 419.073,182.81 417,193.5C 415.094,198.906 411.594,202.906 406.5,205.5 Z"/></g>
<g><path style="opacity:0.196" fill="#797879" d="M 345.5,128.5 C 346.66,130.203 345.993,130.869 343.5,130.5C 343.833,129.5 344.5,128.833 345.5,128.5 Z"/></g>
<g><path style="opacity:0.776" fill="#8b8b8b" d="M 417.5,127.5 C 418.636,136.088 418.802,144.755 418,153.5C 417.722,154.416 417.222,155.082 416.5,155.5C 416.173,145.985 416.506,136.652 417.5,127.5 Z"/></g>
<g><path style="opacity:0.075" fill="#fbfdfb" d="M 204.5,133.5 C 204.826,142.017 204.493,150.35 203.5,158.5C 203.811,151.91 203.478,145.41 202.5,139C 203.109,137.052 203.776,135.218 204.5,133.5 Z"/></g>
<g><path style="opacity:0.98" fill="#69ee97" d="M 587.5,145.5 C 587.389,144.883 587.056,144.383 586.5,144C 588.377,141.874 589.377,139.374 589.5,136.5C 587.473,136.338 585.473,136.505 583.5,137C 584.668,138.871 584.168,140.371 582,141.5C 581.617,140.944 581.117,140.611 580.5,140.5C 582.948,136.441 585.281,132.275 587.5,128C 593.493,126.332 595.993,128.498 595,134.5C 592.971,138.58 590.471,142.246 587.5,145.5 Z"/></g>
<g><path style="opacity:0.132" fill="#f8fbf8" d="M 490.5,141.5 C 492.25,142.659 493.25,144.326 493.5,146.5C 491.75,145.341 490.75,143.674 490.5,141.5 Z"/></g>
<g><path style="opacity:0.152" fill="#f3f9f4" d="M 493.5,146.5 C 495.522,148.531 497.189,150.865 498.5,153.5C 495.736,152.052 494.069,149.719 493.5,146.5 Z"/></g>
<g><path style="opacity:0.999" fill="#52f08b" d="M 486.5,129.5 C 488.352,130.089 490.185,130.756 492,131.5C 496.347,139.54 501.181,147.207 506.5,154.5C 506.911,153.738 507.077,152.738 507,151.5C 507.689,152.357 508.522,153.023 509.5,153.5C 512.23,152.99 514.397,151.656 516,149.5C 516.725,150.059 517.558,150.392 518.5,150.5C 529.23,148.266 540.063,146.932 551,146.5C 555.333,149.432 560,150.432 565,149.5C 567.253,152.047 570.086,153.714 573.5,154.5C 575.226,152.561 576.893,150.727 578.5,149C 579.348,147.812 579.348,146.312 578.5,144.5C 578.229,142.62 578.896,141.287 580.5,140.5C 581.117,140.611 581.617,140.944 582,141.5C 584.168,140.371 584.668,138.871 583.5,137C 585.473,136.505 587.473,136.338 589.5,136.5C 589.377,139.374 588.377,141.874 586.5,144C 587.056,144.383 587.389,144.883 587.5,145.5C 587.5,146.833 586.833,147.5 585.5,147.5C 584.024,149.769 582.524,152.102 581,154.5C 580.297,156.351 580.463,157.017 581.5,156.5C 582.167,156.5 582.5,156.833 582.5,157.5C 584.46,159.156 586.46,160.823 588.5,162.5C 595.84,168.675 602.34,175.675 608,183.5C 608.383,182.944 608.883,182.611 609.5,182.5C 609.586,183.496 609.252,184.329 608.5,185C 613.108,192.325 616.275,199.825 618,207.5C 618.417,208.756 619.25,209.423 620.5,209.5C 621.785,212.589 622.451,215.922 622.5,219.5C 567.5,219.5 512.5,219.5 457.5,219.5C 458.223,211.14 460.223,203.14 463.5,195.5C 465.017,195.489 466.184,194.823 467,193.5C 471.283,185.201 476.783,177.701 483.5,171C 484.549,170.508 485.549,170.674 486.5,171.5C 487.5,169.833 488.833,168.5 490.5,167.5C 490.813,165.48 491.146,163.48 491.5,161.5C 493.027,161.573 494.027,160.906 494.5,159.5C 496.153,159.34 497.486,158.674 498.5,157.5C 498.5,156.167 498.5,154.833 498.5,153.5C 497.189,150.865 495.522,148.531 493.5,146.5C 493.25,144.326 492.25,142.659 490.5,141.5C 488.863,139.684 487.363,137.684 486,135.5C 485.211,133.288 485.378,131.288 486.5,129.5 Z M 580.5,185.5 C 580.833,186.5 581.5,187.167 582.5,187.5C 582.5,187.833 582.5,188.167 582.5,188.5C 583.434,189.568 583.768,190.901 583.5,192.5C 576.556,198.609 572.556,196.942 571.5,187.5C 572.5,187.167 573.167,186.5 573.5,185.5C 575.833,185.5 578.167,185.5 580.5,185.5 Z M 505.5,196.5 C 503.097,196.552 500.764,196.219 498.5,195.5C 497.833,194.5 497.167,193.5 496.5,192.5C 497.426,187.402 500.426,185.235 505.5,186C 509.448,189.578 509.448,193.078 505.5,196.5 Z"/></g>
<g><path style="opacity:0.635" fill="#6ee99a" d="M 486.5,129.5 C 488.693,128.203 491.027,128.203 493.5,129.5C 496.972,136.28 501.305,142.446 506.5,148C 508.034,148.923 509.701,149.423 511.5,149.5C 531.518,144.195 551.518,144.195 571.5,149.5C 572.5,149.333 573.5,149.167 574.5,149C 575.733,147.333 577.067,145.833 578.5,144.5C 579.348,146.312 579.348,147.812 578.5,149C 576.893,150.727 575.226,152.561 573.5,154.5C 570.086,153.714 567.253,152.047 565,149.5C 560,150.432 555.333,149.432 551,146.5C 540.063,146.932 529.23,148.266 518.5,150.5C 517.558,150.392 516.725,150.059 516,149.5C 514.397,151.656 512.23,152.99 509.5,153.5C 508.522,153.023 507.689,152.357 507,151.5C 507.077,152.738 506.911,153.738 506.5,154.5C 501.181,147.207 496.347,139.54 492,131.5C 490.185,130.756 488.352,130.089 486.5,129.5 Z"/></g>
<g><path style="opacity:0.12" fill="#f6fbf8" d="M 585.5,147.5 C 584.977,150.878 583.644,153.878 581.5,156.5C 580.463,157.017 580.297,156.351 581,154.5C 582.524,152.102 584.024,149.769 585.5,147.5 Z"/></g>
<g><path style="opacity:0.055" fill="#eeedee" d="M 397.5,156.5 C 398.5,155.167 399.5,155.167 400.5,156.5C 399.5,157.833 398.5,157.833 397.5,156.5 Z"/></g>
<g><path style="opacity:0.913" fill="#0e0e0e" d="M 48.5,156.5 C 49.6654,158.109 50.9988,158.443 52.5,157.5C 55.4056,157.957 58.0722,158.957 60.5,160.5C 59.8764,162.505 60.7097,164.172 63,165.5C 63.1667,164.5 63.3333,163.5 63.5,162.5C 63.3601,160.97 62.6935,159.97 61.5,159.5C 61.6107,158.883 61.944,158.383 62.5,158C 67.4889,157.501 72.4889,157.334 77.5,157.5C 77.5,178.167 77.5,198.833 77.5,219.5C 73.5,219.5 69.5,219.5 65.5,219.5C 64.4909,216.951 63.6575,214.285 63,211.5C 61.786,213.049 60.286,214.215 58.5,215C 59.7736,215.977 59.7736,216.811 58.5,217.5C 56.2543,218.455 53.921,219.122 51.5,219.5C 49.9988,218.557 48.6654,218.891 47.5,220.5C 30.301,221.136 19.4676,213.136 15,196.5C 12.4023,183.039 15.9023,171.539 25.5,162C 32.4158,157.198 40.0825,155.365 48.5,156.5 Z M 42.5,170.5 C 53.3176,169.669 59.651,173.836 61.5,183C 62.9797,184.299 63.6464,185.966 63.5,188C 62.1426,200.799 55.1426,206.799 42.5,206C 30.2165,199.613 27.0499,190.113 33,177.5C 35.0865,174.906 37.5865,172.906 40.5,171.5C 41.4916,171.672 42.1583,171.338 42.5,170.5 Z"/></g>
<g><path style="opacity:0.159" fill="#ecebec" d="M 48.5,156.5 C 50.099,156.232 51.4324,156.566 52.5,157.5C 50.9988,158.443 49.6654,158.109 48.5,156.5 Z"/></g>
<g><path style="opacity:0.934" fill="#141414" d="M 132.5,216.5 C 132.5,211.167 132.5,205.833 132.5,200.5C 131.917,193.179 131.417,185.846 131,178.5C 126.909,170.121 120.742,168.288 112.5,173C 109.836,175.669 108.002,178.836 107,182.5C 106.5,194.829 106.333,207.162 106.5,219.5C 101.821,219.666 97.1548,219.499 92.5,219C 91.944,218.617 91.6107,218.117 91.5,217.5C 91.5302,197.708 91.5302,177.708 91.5,157.5C 96.9443,156.892 101.944,157.558 106.5,159.5C 105.883,159.389 105.383,159.056 105,158.5C 104.333,161.167 104.333,163.833 105,166.5C 107.491,163.168 110.658,160.668 114.5,159C 113.944,158.617 113.611,158.117 113.5,157.5C 131.641,151.843 142.808,158.177 147,176.5C 147.5,190.829 147.667,205.163 147.5,219.5C 142.821,219.666 138.155,219.499 133.5,219C 132.748,218.329 132.414,217.496 132.5,216.5 Z"/></g>
<g><path style="opacity:0.929" fill="#101010" d="M 307.5,156.5 C 309.074,157.928 310.741,158.261 312.5,157.5C 322.25,159.587 328.917,165.254 332.5,174.5C 335.118,183.819 335.118,193.152 332.5,202.5C 332.672,203.492 332.338,204.158 331.5,204.5C 329.952,204.821 329.285,205.821 329.5,207.5C 325.361,214.108 319.361,218.275 311.5,220C 297.102,222.947 285.269,218.78 276,207.5C 273.398,203.526 271.898,199.193 271.5,194.5C 271.676,190.711 271.676,186.711 271.5,182.5C 271.5,182.167 271.5,181.833 271.5,181.5C 272.404,180.791 272.737,179.791 272.5,178.5C 275.437,167.136 282.77,159.97 294.5,157C 298.877,155.704 303.21,155.537 307.5,156.5 Z M 299.5,170.5 C 312.093,170.296 319.093,176.129 320.5,188C 317.866,203.32 309.199,208.654 294.5,204C 283.833,193.667 283.833,183.333 294.5,173C 296.315,172.243 297.981,171.41 299.5,170.5 Z"/></g>
<g><path style="opacity:0.161" fill="#eeeeee" d="M 307.5,156.5 C 309.415,156.216 311.081,156.549 312.5,157.5C 310.741,158.261 309.074,157.928 307.5,156.5 Z"/></g>
<g><path style="opacity:0.212" fill="#fcfcfc" d="M 91.5,157.5 C 91.5302,177.708 91.5302,197.708 91.5,217.5C 90.1667,197.5 90.1667,177.5 91.5,157.5 Z"/></g>
<g><path style="opacity:0.902" fill="#141414" d="M 246.5,157.5 C 246.335,160.85 246.502,164.183 247,167.5C 247.513,166.473 248.013,165.473 248.5,164.5C 250.262,163.738 251.262,162.404 251.5,160.5C 252.975,158.59 254.975,157.424 257.5,157C 260.894,156.248 264.227,156.415 267.5,157.5C 268.494,162.456 268.827,167.456 268.5,172.5C 259.444,170.017 252.944,173.017 249,181.5C 247.58,194.106 247.08,206.772 247.5,219.5C 242.767,219.777 238.1,219.443 233.5,218.5C 232.5,198.178 232.167,177.844 232.5,157.5C 237.167,157.5 241.833,157.5 246.5,157.5 Z"/></g>
<g><path style="opacity:0.228" fill="#fefffe" d="M 246.5,157.5 C 247.167,159.833 247.833,162.167 248.5,164.5C 248.013,165.473 247.513,166.473 247,167.5C 246.502,164.183 246.335,160.85 246.5,157.5 Z"/></g>
<g><path style="opacity:0.883" fill="#121212" d="M 344.5,157.5 C 349.5,157.5 354.5,157.5 359.5,157.5C 359.5,178.167 359.5,198.833 359.5,219.5C 355.154,219.666 350.821,219.499 346.5,219C 346,218.5 345.5,218 345,217.5C 344.5,197.503 344.333,177.503 344.5,157.5 Z"/></g>
<g><path style="opacity:0.132" fill="#f9fefc" d="M 498.5,157.5 C 497.486,158.674 496.153,159.34 494.5,159.5C 495.287,157.896 496.62,157.229 498.5,157.5 Z"/></g>
<g><path style="opacity:0.122" fill="#f6fdf8" d="M 582.5,157.5 C 585.331,158.079 587.664,159.412 589.5,161.5C 588.833,161.5 588.5,161.833 588.5,162.5C 586.46,160.823 584.46,159.156 582.5,157.5 Z"/></g>
<g><path style="opacity:0.139" fill="#fefeff" d="M 494.5,159.5 C 494.027,160.906 493.027,161.573 491.5,161.5C 491.973,160.094 492.973,159.427 494.5,159.5 Z"/></g>
<g><path style="opacity:0.329" fill="#6a6a6a" d="M 113.5,157.5 C 113.611,158.117 113.944,158.617 114.5,159C 110.658,160.668 107.491,163.168 105,166.5C 104.333,163.833 104.333,161.167 105,158.5C 105.383,159.056 105.883,159.389 106.5,159.5C 106.369,160.239 106.536,160.906 107,161.5C 108.944,159.779 111.11,158.446 113.5,157.5 Z"/></g>
<g><path style="opacity:0.267" fill="#bec2be" d="M 61.5,159.5 C 62.6935,159.97 63.3601,160.97 63.5,162.5C 63.3333,163.5 63.1667,164.5 63,165.5C 60.7097,164.172 59.8764,162.505 60.5,160.5C 61.1667,160.5 61.5,160.167 61.5,159.5 Z"/></g>
<g><path style="opacity:0.306" fill="#eaf5ef" d="M 251.5,160.5 C 251.262,162.404 250.262,163.738 248.5,164.5C 248.738,162.596 249.738,161.262 251.5,160.5 Z"/></g>
<g><path style="opacity:0.059" fill="#69e596" d="M 589.5,161.5 C 598.158,166.494 604.825,173.494 609.5,182.5C 608.883,182.611 608.383,182.944 608,183.5C 602.34,175.675 595.84,168.675 588.5,162.5C 588.5,161.833 588.833,161.5 589.5,161.5 Z"/></g>
<g><path style="opacity:0.09" fill="#dcdcdc" d="M 42.5,170.5 C 42.1583,171.338 41.4916,171.672 40.5,171.5C 40.4088,169.302 41.0755,168.969 42.5,170.5 Z"/></g>
<g><path style="opacity:0.769" fill="#878787" d="M 218.5,127.5 C 219.498,156.662 219.831,185.995 219.5,215.5C 218.732,216.263 218.232,217.263 218,218.5C 217.764,188.167 217.931,157.833 218.5,127.5 Z"/></g>
<g><path style="opacity:0.207" fill="#f3f4f3" d="M 332.5,174.5 C 333.558,175.6 334.392,176.934 335,178.5C 335.667,184.5 335.667,190.5 335,196.5C 334.76,198.852 333.927,200.852 332.5,202.5C 335.118,193.152 335.118,183.819 332.5,174.5 Z"/></g>
<g><path style="opacity:0.137" fill="#edf7ee" d="M 272.5,178.5 C 272.737,179.791 272.404,180.791 271.5,181.5C 271.586,180.504 271.252,179.671 270.5,179C 271.094,178.536 271.761,178.369 272.5,178.5 Z"/></g>
<g><path style="opacity:0.72" fill="#aeaeae" d="M 431.5,127.5 C 432.833,158.167 432.833,188.833 431.5,219.5C 430.832,188.846 430.832,158.179 431.5,127.5 Z"/></g>
<g><path style="opacity:0.554" fill="#64eb95" d="M 491.5,161.5 C 491.146,163.48 490.813,165.48 490.5,167.5C 488.833,168.5 487.5,169.833 486.5,171.5C 485.549,170.674 484.549,170.508 483.5,171C 476.783,177.701 471.283,185.201 467,193.5C 466.184,194.823 465.017,195.489 463.5,195.5C 468.88,180.798 478.214,169.464 491.5,161.5 Z"/></g>
<g><path style="opacity:0.09" fill="#dcdcdc" d="M 385.5,181.5 C 385.672,182.492 385.338,183.158 384.5,183.5C 382.969,182.075 383.302,181.409 385.5,181.5 Z"/></g>
<g><path style="opacity:0.169" fill="#f6f6f6" d="M 271.5,182.5 C 271.676,186.711 271.676,190.711 271.5,194.5C 270.167,190.5 270.167,186.5 271.5,182.5 Z"/></g>
<g><path style="opacity:0.208" fill="#c8f2d6" d="M 580.5,185.5 C 578.167,185.5 575.833,185.5 573.5,185.5C 574.134,184.053 575.301,183.387 577,183.5C 578.699,183.387 579.866,184.053 580.5,185.5 Z"/></g>
<g><path style="opacity:0.209" fill="#e8faed" d="M 505.5,196.5 C 509.448,193.078 509.448,189.578 505.5,186C 500.426,185.235 497.426,187.402 496.5,192.5C 495.474,188.906 496.807,186.072 500.5,184C 507.643,183.821 510.476,187.321 509,194.5C 508.184,195.823 507.017,196.489 505.5,196.5 Z"/></g>
<g><path style="opacity:0.137" fill="#eaf6ec" d="M 580.5,185.5 C 581.239,185.369 581.906,185.536 582.5,186C 583.738,186.69 583.738,187.19 582.5,187.5C 581.5,187.167 580.833,186.5 580.5,185.5 Z"/></g>
<g><path style="opacity:0.176" fill="#effbf3" d="M 571.5,187.5 C 572.556,196.942 576.556,198.609 583.5,192.5C 581.641,196.926 578.308,198.426 573.5,197C 570.613,194.152 569.946,190.985 571.5,187.5 Z"/></g>
<g><path style="opacity:0.217" fill="#e7fcef" d="M 498.5,195.5 C 500.764,196.219 503.097,196.552 505.5,196.5C 504.551,197.152 503.385,197.486 502,197.5C 500.319,197.392 499.152,196.725 498.5,195.5 Z"/></g>
<g><path style="opacity:0.282" fill="#777a77" d="M 202.5,198.5 C 202.5,199.5 202.5,200.5 202.5,201.5C 201.5,201.5 200.5,201.5 199.5,201.5C 200.167,200.167 201.167,199.167 202.5,198.5 Z"/></g>
<g><path style="opacity:0.062" fill="#fafcfa" d="M 132.5,200.5 C 132.5,205.833 132.5,211.167 132.5,216.5C 131.804,212.769 131.138,208.935 130.5,205C 131.099,203.378 131.766,201.878 132.5,200.5 Z"/></g>
<g><path style="opacity:0.153" fill="#78eaa0" d="M 609.5,182.5 C 615.065,190.643 618.732,199.643 620.5,209.5C 619.25,209.423 618.417,208.756 618,207.5C 616.275,199.825 613.108,192.325 608.5,185C 609.252,184.329 609.586,183.496 609.5,182.5 Z"/></g>
<g><path style="opacity:0.278" fill="#838383" d="M 331.5,204.5 C 331.573,206.027 330.906,207.027 329.5,207.5C 329.285,205.821 329.952,204.821 331.5,204.5 Z"/></g>
<g><path style="opacity:0.094" fill="#e2e2e2" d="M 395.5,205.5 C 396.492,205.328 397.158,205.662 397.5,206.5C 396.075,208.031 395.409,207.698 395.5,205.5 Z"/></g>
<g><path style="opacity:0.094" fill="#e2e2e2" d="M 404.5,206.5 C 404.842,205.662 405.508,205.328 406.5,205.5C 406.591,207.698 405.925,208.031 404.5,206.5 Z"/></g>
<g><path style="opacity:0.576" fill="#bfc5c0" d="M 65.5,219.5 C 63.2907,217.612 60.9574,216.946 58.5,217.5C 59.7736,216.811 59.7736,215.977 58.5,215C 60.286,214.215 61.786,213.049 63,211.5C 63.6575,214.285 64.4909,216.951 65.5,219.5 Z"/></g>
<g><path style="opacity:0.14" fill="#ebebeb" d="M 51.5,219.5 C 50.4324,220.434 49.099,220.768 47.5,220.5C 48.6654,218.891 49.9988,218.557 51.5,219.5 Z"/></g>
</svg>
