<?xml version="1.0" encoding="UTF-8"?>
<!DOCTYPE svg PUBLIC "-//W3C//DTD SVG 1.1//EN" "http://www.w3.org/Graphics/SVG/1.1/DTD/svg11.dtd">
<svg xmlns="http://www.w3.org/2000/svg" version="1.1" width="400px" height="400px" style="shape-rendering:geometricPrecision; text-rendering:geometricPrecision; image-rendering:optimizeQuality; fill-rule:evenodd; clip-rule:evenodd" xmlns:xlink="http://www.w3.org/1999/xlink">
<g><path style="opacity:1" fill="#00fbe4" d="M 174.5,75.5 C 196.149,77.9746 205.649,89.9746 203,111.5C 194.029,130.101 180.196,135.101 161.5,126.5C 148.25,115.026 146.083,101.693 155,86.5C 160.455,80.8598 166.955,77.1931 174.5,75.5 Z"/></g>
<g><path style="opacity:1" fill="#00fce5" d="M 250.5,79.5 C 276.048,78.8822 286.881,91.2155 283,116.5C 271.767,135.469 256.934,138.969 238.5,127C 229.274,115.693 228.107,103.526 235,90.5C 239.219,85.2949 244.386,81.6282 250.5,79.5 Z"/></g>
<g><path style="opacity:1" fill="#00fce5" d="M 99.5,115.5 C 116.889,113.756 128.056,121.089 133,137.5C 133.981,158.184 124.148,169.018 103.5,170C 91.8299,168.087 83.9965,161.587 80,150.5C 77.1703,133.482 83.6703,121.816 99.5,115.5 Z"/></g>
<g><path style="opacity:1" fill="#00fde5" d="M 258.5,151.5 C 258.414,152.496 258.748,153.329 259.5,154C 261.817,156.157 264.484,157.657 267.5,158.5C 292.166,179.606 303.332,206.606 301,239.5C 295.18,280.636 272.68,308.136 233.5,322C 186.993,332.475 150.827,317.975 125,278.5C 106.639,243.781 107.972,209.781 129,176.5C 160.119,138.225 198.952,127.392 245.5,144C 250.04,146.227 254.374,148.727 258.5,151.5 Z"/></g>
<g><path style="opacity:1" fill="#00e1d4" d="M 258.5,151.5 C 261.81,153.482 264.81,155.815 267.5,158.5C 264.484,157.657 261.817,156.157 259.5,154C 258.748,153.329 258.414,152.496 258.5,151.5 Z"/></g>
</svg>
