<?xml version="1.0" encoding="UTF-8"?>
<!DOCTYPE svg PUBLIC "-//W3C//DTD SVG 1.1//EN" "http://www.w3.org/Graphics/SVG/1.1/DTD/svg11.dtd">
<svg xmlns="http://www.w3.org/2000/svg" version="1.1" width="500px" height="500px" style="shape-rendering:geometricPrecision; text-rendering:geometricPrecision; image-rendering:optimizeQuality; fill-rule:evenodd; clip-rule:evenodd" xmlns:xlink="http://www.w3.org/1999/xlink">
<g><path style="opacity:1" fill="#39fee2" d="M 217.5,94.5 C 239.7,95.5358 252.033,107.036 254.5,129C 252.515,149.32 241.348,160.82 221,163.5C 194.617,159.722 183.617,144.722 188,118.5C 193.255,104.734 203.088,96.734 217.5,94.5 Z"/></g>
<g><path style="opacity:1" fill="#39fee2" d="M 318.5,98.5 C 340.653,99.4871 352.987,110.987 355.5,133C 353.468,153.366 342.301,164.866 322,167.5C 300.234,165.901 288.734,154.235 287.5,132.5C 289.167,113.112 299.501,101.778 318.5,98.5 Z"/></g>
<g><path style="opacity:1" fill="#39fee2" d="M 129.5,143.5 C 157.23,146.055 169.063,161.055 165,188.5C 156.209,208.145 141.376,215.312 120.5,210C 103.554,202.281 96.3871,189.114 99,170.5C 103.763,155.229 113.93,146.229 129.5,143.5 Z"/></g>
<g><path style="opacity:1" fill="#39fee2" d="M 253.5,169.5 C 299.692,169.671 335.192,189.005 360,227.5C 385.101,275.584 381.434,321.25 349,364.5C 314.027,402.538 271.527,414.705 221.5,401C 170.183,381.157 142.849,343.657 139.5,288.5C 143.778,226.757 175.778,187.924 235.5,172C 241.647,171.162 247.647,170.329 253.5,169.5 Z"/></g>
</svg>
