<?xml version="1.0" encoding="UTF-8"?>
<!DOCTYPE svg PUBLIC "-//W3C//DTD SVG 1.1//EN" "http://www.w3.org/Graphics/SVG/1.1/DTD/svg11.dtd">
<svg xmlns="http://www.w3.org/2000/svg" version="1.1" width="500px" height="500px" style="shape-rendering:geometricPrecision; text-rendering:geometricPrecision; image-rendering:optimizeQuality; fill-rule:evenodd; clip-rule:evenodd" xmlns:xlink="http://www.w3.org/1999/xlink">
<g><path style="opacity:1" fill="#3bfee2" d="M 230.5,191.5 C 244.605,189.122 251.938,194.956 252.5,209C 251.96,213.489 251.626,217.989 251.5,222.5C 257.5,222.5 263.5,222.5 269.5,222.5C 269.714,224.144 269.38,225.644 268.5,227C 263.511,227.749 258.511,228.415 253.5,229C 252.376,229.839 251.709,231.006 251.5,232.5C 250.04,252.187 250.207,271.854 252,291.5C 253.223,295.866 255.723,297.033 259.5,295C 269.196,284.454 277.029,272.621 283,259.5C 284.364,258.742 285.531,259.242 286.5,261C 280.255,276.836 271.255,290.836 259.5,303C 254.074,306.88 248.074,309.38 241.5,310.5C 235.244,310.078 231.744,306.745 231,300.5C 229.459,294.254 228.459,287.921 228,281.5C 227.69,264.832 227.857,248.165 228.5,231.5C 222.463,231.829 216.463,231.496 210.5,230.5C 210.167,229.833 209.833,229.167 209.5,228.5C 215.687,226.614 222.021,225.281 228.5,224.5C 230.116,213.563 230.783,202.563 230.5,191.5 Z"/></g>
<g><path style="opacity:1" fill="#3bfee2" d="M 295.5,191.5 C 309.605,189.122 316.938,194.956 317.5,209C 316.96,213.489 316.626,217.989 316.5,222.5C 322.5,222.5 328.5,222.5 334.5,222.5C 334.714,224.144 334.38,225.644 333.5,227C 328.511,227.749 323.511,228.415 318.5,229C 317.376,229.839 316.709,231.006 316.5,232.5C 315.04,252.187 315.207,271.854 317,291.5C 318.223,295.866 320.723,297.033 324.5,295C 331.099,288.299 336.599,280.799 341,272.5C 342.131,263.485 343.298,254.485 344.5,245.5C 348.605,245.234 352.605,245.734 356.5,247C 360.883,248.578 363.216,251.745 363.5,256.5C 361.214,266.788 360.714,277.122 362,287.5C 363.868,288.672 365.702,288.505 367.5,287C 371.993,283.166 374.826,278.333 376,272.5C 376.646,265.098 377.812,257.931 379.5,251C 389.764,249.042 396.598,252.876 400,262.5C 400.168,271.186 400.668,279.852 401.5,288.5C 410.511,278.821 419.178,268.821 427.5,258.5C 428.308,258.808 428.975,259.308 429.5,260C 421.546,270.076 413.712,280.243 406,290.5C 407.91,302.55 409.076,314.716 409.5,327C 410.838,338.658 407.838,348.991 400.5,358C 391.975,362.892 386.142,360.725 383,351.5C 381.528,347.277 380.528,342.943 380,338.5C 379.011,319.511 378.178,300.511 377.5,281.5C 374.003,289.496 368.337,295.329 360.5,299C 355.56,300.041 350.894,299.374 346.5,297C 343.527,292.961 341.527,288.461 340.5,283.5C 335.205,291.593 328.872,298.76 321.5,305C 316.905,307.965 311.905,309.798 306.5,310.5C 303.789,309.986 301.289,308.986 299,307.5C 295.291,299.253 293.291,290.587 293,281.5C 292.69,264.832 292.857,248.165 293.5,231.5C 287.463,231.829 281.463,231.496 275.5,230.5C 275.167,229.833 274.833,229.167 274.5,228.5C 280.687,226.614 287.021,225.281 293.5,224.5C 295.116,213.563 295.783,202.563 295.5,191.5 Z M 400.5,295.5 C 401.167,295.5 401.833,295.5 402.5,295.5C 406.284,308.206 406.284,320.873 402.5,333.5C 400.937,320.883 400.27,308.217 400.5,295.5 Z"/></g>
<g><path style="opacity:1" fill="#3afee2" d="M 108.5,195.5 C 119.043,193.722 126.877,197.389 132,206.5C 132.333,213.833 132.667,221.167 133,228.5C 135.789,220.745 140.956,215.245 148.5,212C 153.808,210.579 157.975,212.079 161,216.5C 161.067,240.355 150.734,258.355 130,270.5C 129.348,282.649 130.015,294.649 132,306.5C 125.568,313.775 118.235,315.109 110,310.5C 107.327,305.481 105.66,300.148 105,294.5C 104.727,287.147 104.227,279.813 103.5,272.5C 105.515,246.642 107.182,220.975 108.5,195.5 Z M 146.5,217.5 C 150.852,217.322 152.852,219.488 152.5,224C 149.88,239.411 142.713,252.244 131,262.5C 132.076,250.858 134.743,239.525 139,228.5C 140.615,224.082 143.115,220.416 146.5,217.5 Z"/></g>
<g><path style="opacity:1" fill="#3bfee2" d="M 180.5,252.5 C 195.205,250.367 201.039,256.367 198,270.5C 193.1,277.283 186.434,280.616 178,280.5C 176.788,285.424 177.955,289.59 181.5,293C 186.705,293.074 191.372,291.407 195.5,288C 204.722,279.777 212.889,270.611 220,260.5C 220.833,261.333 221.667,262.167 222.5,263C 212.971,281.53 198.637,294.864 179.5,303C 167.734,307.049 160.234,303.215 157,291.5C 154.199,271.725 162.033,258.725 180.5,252.5 Z M 187.5,260.5 C 194.249,260.992 196.082,264.325 193,270.5C 189.531,275.648 184.698,277.648 178.5,276.5C 178.958,269.57 181.958,264.237 187.5,260.5 Z"/></g>
<g><path style="opacity:1" fill="#b1fef1" d="M 402.5,295.5 C 401.833,295.5 401.167,295.5 400.5,295.5C 400.638,291.714 401.305,291.714 402.5,295.5 Z"/></g>
</svg>
