<?xml version="1.0" encoding="UTF-8"?>
<!DOCTYPE svg PUBLIC "-//W3C//DTD SVG 1.1//EN" "http://www.w3.org/Graphics/SVG/1.1/DTD/svg11.dtd">
<svg xmlns="http://www.w3.org/2000/svg" version="1.1" width="1485px" height="366px" style="shape-rendering:geometricPrecision; text-rendering:geometricPrecision; image-rendering:optimizeQuality; fill-rule:evenodd; clip-rule:evenodd" xmlns:xlink="http://www.w3.org/1999/xlink">
<g><path style="opacity:1" fill="#8e8e8e" d="M 188.5,9.5 C 187.596,8.79105 187.263,7.79105 187.5,6.5C 184.482,6.70381 181.482,7.03714 178.5,7.5C 178.918,6.77842 179.584,6.27842 180.5,6C 183.146,5.50258 185.813,5.33591 188.5,5.5C 188.5,6.83333 188.5,8.16667 188.5,9.5 Z"/></g>
<g><path style="opacity:1" fill="#0c0c0c" d="M 188.5,9.5 C 187.894,40.9037 173.227,62.7371 144.5,75C 140.914,76.1076 137.247,76.6076 133.5,76.5C 130.789,76.8151 128.456,76.1484 126.5,74.5C 126.5,71.8333 126.5,69.1667 126.5,66.5C 127.657,63.7273 128.324,60.7273 128.5,57.5C 129.531,51.7326 131.531,46.3992 134.5,41.5C 135.906,41.0269 136.573,40.0269 136.5,38.5C 136.427,36.9731 137.094,35.9731 138.5,35.5C 139.906,35.0269 140.573,34.0269 140.5,32.5C 140.5,31.8333 140.833,31.5 141.5,31.5C 142.906,31.0269 143.573,30.0269 143.5,28.5C 144.833,26.5 146.5,24.8333 148.5,23.5C 150.749,22.9202 152.415,21.5869 153.5,19.5C 155.147,17.6736 157.147,16.3403 159.5,15.5C 161.027,15.573 162.027,14.9063 162.5,13.5C 163.78,12.0687 165.447,11.4021 167.5,11.5C 169.027,11.573 170.027,10.9063 170.5,9.5C 170.833,9.5 171.167,9.5 171.5,9.5C 173.898,9.74061 175.898,9.07394 177.5,7.5C 177.833,7.5 178.167,7.5 178.5,7.5C 181.482,7.03714 184.482,6.70381 187.5,6.5C 187.263,7.79105 187.596,8.79105 188.5,9.5 Z"/></g>
<g><path style="opacity:1" fill="#707070" d="M 177.5,7.5 C 175.898,9.07394 173.898,9.74061 171.5,9.5C 173.214,8.26162 175.214,7.59495 177.5,7.5 Z"/></g>
<g><path style="opacity:1" fill="#818181" d="M 170.5,9.5 C 170.027,10.9063 169.027,11.573 167.5,11.5C 167.973,10.0937 168.973,9.42702 170.5,9.5 Z"/></g>
<g><path style="opacity:1" fill="#838383" d="M 162.5,13.5 C 162.027,14.9063 161.027,15.573 159.5,15.5C 159.973,14.0937 160.973,13.427 162.5,13.5 Z"/></g>
<g><path style="opacity:1" fill="#808080" d="M 153.5,19.5 C 152.415,21.5869 150.749,22.9202 148.5,23.5C 149.585,21.4131 151.251,20.0798 153.5,19.5 Z"/></g>
<g><path style="opacity:1" fill="#686868" d="M 351.5,26.5 C 348.727,27.6572 345.727,28.3239 342.5,28.5C 345.171,26.8819 348.171,26.2153 351.5,26.5 Z"/></g>
<g><path style="opacity:1" fill="#0d0d0d" d="M 351.5,26.5 C 363.417,26.7646 371.417,32.4313 375.5,43.5C 375.5,48.1667 375.5,52.8333 375.5,57.5C 370.026,72.7314 359.36,78.2314 343.5,74C 330.06,67.9532 325.06,57.7866 328.5,43.5C 329.674,42.4863 330.34,41.153 330.5,39.5C 331.11,37.5659 332.11,35.8993 333.5,34.5C 335.404,34.2624 336.738,33.2624 337.5,31.5C 338.659,29.7497 340.326,28.7497 342.5,28.5C 345.727,28.3239 348.727,27.6572 351.5,26.5 Z"/></g>
<g><path style="opacity:1" fill="#050505" d="M 527.5,27.5 C 558.228,27.0316 582.561,39.0316 600.5,63.5C 600.427,65.0269 601.094,66.0269 602.5,66.5C 608.055,73.9491 611.722,82.2824 613.5,91.5C 613.41,94.1522 614.076,96.4855 615.5,98.5C 616.734,101.859 617.068,105.193 616.5,108.5C 616.672,118.857 616.339,129.19 615.5,139.5C 615.5,140.167 615.5,140.833 615.5,141.5C 614.076,143.515 613.41,145.848 613.5,148.5C 602.307,185.183 577.64,206.349 539.5,212C 514.502,212.5 489.502,212.667 464.5,212.5C 464.5,244.5 464.5,276.5 464.5,308.5C 450.167,308.5 435.833,308.5 421.5,308.5C 421.5,214.833 421.5,121.167 421.5,27.5C 456.833,27.5 492.167,27.5 527.5,27.5 Z M 536.5,67.5 C 537.93,68.5375 539.597,69.2041 541.5,69.5C 551.281,73.2811 558.947,79.6144 564.5,88.5C 564.932,89.7095 565.599,90.7095 566.5,91.5C 572.259,106.765 573.593,122.431 570.5,138.5C 569.463,139.93 568.796,141.597 568.5,143.5C 566.895,146.378 565.561,149.378 564.5,152.5C 563.094,152.973 562.427,153.973 562.5,155.5C 561.833,155.5 561.5,155.833 561.5,156.5C 560.167,157.167 559.167,158.167 558.5,159.5C 556.833,160.5 555.5,161.833 554.5,163.5C 552.596,163.738 551.262,164.738 550.5,166.5C 545.755,168.545 541.089,170.545 536.5,172.5C 533.572,172.565 530.905,173.232 528.5,174.5C 507.181,175.391 485.848,175.724 464.5,175.5C 464.5,138.5 464.5,101.5 464.5,64.5C 482.503,64.3334 500.503,64.5001 518.5,65C 524.557,65.5121 530.557,66.3454 536.5,67.5 Z"/></g>
<g><path style="opacity:1" fill="#070707" d="M 646.5,27.5 C 660.167,27.5 673.833,27.5 687.5,27.5C 687.167,64.8393 687.5,102.173 688.5,139.5C 689.298,139.043 689.631,138.376 689.5,137.5C 689.328,136.508 689.662,135.842 690.5,135.5C 691.906,135.027 692.573,134.027 692.5,132.5C 693.906,132.027 694.573,131.027 694.5,129.5C 695.906,129.027 696.573,128.027 696.5,126.5C 696.5,125.833 696.833,125.5 697.5,125.5C 700.833,122.833 703.833,119.833 706.5,116.5C 707.436,115.026 708.77,114.026 710.5,113.5C 712.027,113.573 713.027,112.906 713.5,111.5C 715.849,109.659 718.515,108.326 721.5,107.5C 723.698,107.88 725.365,107.213 726.5,105.5C 726.833,105.5 727.167,105.5 727.5,105.5C 730.495,105.706 733.162,105.04 735.5,103.5C 755.079,99.3808 773.746,102.047 791.5,111.5C 791.821,113.048 792.821,113.715 794.5,113.5C 809.135,123.816 818.135,137.816 821.5,155.5C 821.549,159.078 822.215,162.411 823.5,165.5C 823.5,166.833 823.5,168.167 823.5,169.5C 823.5,215.833 823.5,262.167 823.5,308.5C 809.833,308.5 796.167,308.5 782.5,308.5C 782.667,265.499 782.5,222.499 782,179.5C 781.809,177.292 781.309,175.292 780.5,173.5C 779.036,168.442 777.37,163.442 775.5,158.5C 775.715,156.821 775.048,155.821 773.5,155.5C 773.715,153.821 773.048,152.821 771.5,152.5C 770.5,152.167 769.833,151.5 769.5,150.5C 769.167,148.167 767.833,146.833 765.5,146.5C 765.027,145.094 764.027,144.427 762.5,144.5C 760.716,144.107 759.05,143.441 757.5,142.5C 756.365,140.787 754.698,140.12 752.5,140.5C 738.674,138.036 725.341,139.536 712.5,145C 700.665,152.338 693.332,162.838 690.5,176.5C 688.789,180.881 688.123,185.547 688.5,190.5C 688.5,230.167 688.5,269.833 688.5,309.5C 674.255,309.824 660.088,309.49 646,308.5C 645.168,214.666 645.334,120.999 646.5,27.5 Z"/></g>
<g><path style="opacity:1" fill="#929292" d="M 143.5,28.5 C 143.573,30.0269 142.906,31.0269 141.5,31.5C 141.427,29.9731 142.094,28.9731 143.5,28.5 Z"/></g>
<g><path style="opacity:1" fill="#a4a4a4" d="M 527.5,27.5 C 492.167,27.5 456.833,27.5 421.5,27.5C 421.5,121.167 421.5,214.833 421.5,308.5C 435.833,308.5 450.167,308.5 464.5,308.5C 450.01,309.496 435.343,309.829 420.5,309.5C 420.5,215.167 420.5,120.833 420.5,26.5C 456.337,26.1683 492.004,26.5016 527.5,27.5 Z"/></g>
<g><path style="opacity:1" fill="#9c9c9c" d="M 646.5,27.5 C 660.323,26.5042 674.323,26.1709 688.5,26.5C 688.168,63.6704 688.502,100.67 689.5,137.5C 689.631,138.376 689.298,139.043 688.5,139.5C 687.5,102.173 687.167,64.8393 687.5,27.5C 673.833,27.5 660.167,27.5 646.5,27.5 Z"/></g>
<g><path style="opacity:1" fill="#747474" d="M 337.5,31.5 C 336.738,33.2624 335.404,34.2624 333.5,34.5C 334.262,32.7376 335.596,31.7376 337.5,31.5 Z"/></g>
<g><path style="opacity:1" fill="#7f7f7f" d="M 140.5,32.5 C 140.573,34.0269 139.906,35.0269 138.5,35.5C 138.427,33.9731 139.094,32.9731 140.5,32.5 Z"/></g>
<g><path style="opacity:1" fill="#adadad" d="M 136.5,38.5 C 136.573,40.0269 135.906,41.0269 134.5,41.5C 134.427,39.9731 135.094,38.9731 136.5,38.5 Z"/></g>
<g><path style="opacity:1" fill="#b7b7b7" d="M 330.5,39.5 C 330.34,41.153 329.674,42.4863 328.5,43.5C 328.229,41.6203 328.896,40.287 330.5,39.5 Z"/></g>
<g><path style="opacity:1" fill="#797979" d="M 375.5,43.5 C 378.167,48.1667 378.167,52.8333 375.5,57.5C 375.5,52.8333 375.5,48.1667 375.5,43.5 Z"/></g>
<g><path style="opacity:1" fill="#b4b4b4" d="M 128.5,57.5 C 128.324,60.7273 127.657,63.7273 126.5,66.5C 126.215,63.1709 126.882,60.1709 128.5,57.5 Z"/></g>
<g><path style="opacity:1" fill="#9c9c9c" d="M 600.5,63.5 C 601.906,63.9731 602.573,64.9731 602.5,66.5C 601.094,66.0269 600.427,65.0269 600.5,63.5 Z"/></g>
<g><path style="opacity:1" fill="#727272" d="M 536.5,67.5 C 538.698,67.1201 540.365,67.7868 541.5,69.5C 539.597,69.2041 537.93,68.5375 536.5,67.5 Z"/></g>
<g><path style="opacity:1" fill="#dbdbdb" d="M 126.5,74.5 C 128.456,76.1484 130.789,76.8151 133.5,76.5C 131.393,77.4682 129.059,77.8016 126.5,77.5C 126.5,76.5 126.5,75.5 126.5,74.5 Z"/></g>
<g><path style="opacity:1" fill="#030303" d="M 220.5,88.5 C 220.821,90.0481 221.821,90.7148 223.5,90.5C 229.075,93.406 233.742,97.406 237.5,102.5C 237.738,104.404 238.738,105.738 240.5,106.5C 242.446,107.254 243.279,108.588 243,110.5C 210.259,135.366 202.759,166.366 220.5,203.5C 220.427,205.027 221.094,206.027 222.5,206.5C 222.427,208.027 223.094,209.027 224.5,209.5C 232.647,217.653 241.647,224.653 251.5,230.5C 243.854,251.465 233.354,270.798 220,288.5C 212.599,299.1 202.765,306.1 190.5,309.5C 183.471,309.623 176.471,309.29 169.5,308.5C 163.74,306.635 158.073,304.468 152.5,302C 142.638,299.582 132.638,298.915 122.5,300C 112.796,303.192 103.13,306.359 93.5,309.5C 86.0756,310.976 78.7423,310.643 71.5,308.5C 69.326,308.25 67.6594,307.25 66.5,305.5C 66.0269,304.094 65.0269,303.427 63.5,303.5C 62.7377,301.738 61.4044,300.738 59.5,300.5C 46.9826,288.456 36.6493,274.789 28.5,259.5C 28.7148,257.821 28.0481,256.821 26.5,256.5C 8.03635,222.653 1.36969,186.653 6.5,148.5C 7.92381,146.485 8.59047,144.152 8.5,141.5C 8.21552,139.585 8.54885,137.919 9.5,136.5C 11.2132,135.365 11.8799,133.698 11.5,131.5C 12.6981,126.772 14.6981,122.439 17.5,118.5C 18.9063,118.027 19.573,117.027 19.5,115.5C 20.9063,115.027 21.573,114.027 21.5,112.5C 21.5,111.833 21.8333,111.5 22.5,111.5C 23.9063,111.027 24.573,110.027 24.5,108.5C 24.5,107.833 24.8333,107.5 25.5,107.5C 27.5869,106.415 28.9202,104.749 29.5,102.5C 32.0892,101.581 34.0892,99.914 35.5,97.5C 36.5794,95.457 38.246,94.1237 40.5,93.5C 42.0269,93.573 43.0269,92.9063 43.5,91.5C 43.8417,90.6618 44.5084,90.3284 45.5,90.5C 47.0269,90.573 48.0269,89.9063 48.5,88.5C 62.8927,80.5697 78.226,78.4031 94.5,82C 106.111,86.5577 117.945,90.391 130,93.5C 132.137,92.9233 134.304,92.59 136.5,92.5C 139.716,92.6545 142.383,91.6545 144.5,89.5C 147.007,88.1084 149.673,87.1084 152.5,86.5C 154.698,86.8799 156.365,86.2132 157.5,84.5C 157.833,84.5 158.167,84.5 158.5,84.5C 162.162,84.2766 165.495,83.2766 168.5,81.5C 186.633,77.1505 203.966,79.4839 220.5,88.5 Z"/></g>
<g><path style="opacity:1" fill="#585858" d="M 168.5,81.5 C 165.495,83.2766 162.162,84.2766 158.5,84.5C 161.505,82.7234 164.838,81.7234 168.5,81.5 Z"/></g>
<g><path style="opacity:1" fill="#6d6d6d" d="M 157.5,84.5 C 156.365,86.2132 154.698,86.8799 152.5,86.5C 153.93,85.4625 155.597,84.7959 157.5,84.5 Z"/></g>
<g><path style="opacity:1" fill="#7a7a7a" d="M 564.5,88.5 C 566.048,88.8212 566.715,89.8212 566.5,91.5C 565.599,90.7095 564.932,89.7095 564.5,88.5 Z"/></g>
<g><path style="opacity:1" fill="#797979" d="M 48.5,88.5 C 48.0269,89.9063 47.0269,90.573 45.5,90.5C 45.9731,89.0937 46.9731,88.427 48.5,88.5 Z"/></g>
<g><path style="opacity:1" fill="#6e6e6e" d="M 220.5,88.5 C 221.71,88.9321 222.71,89.5987 223.5,90.5C 221.821,90.7148 220.821,90.0481 220.5,88.5 Z"/></g>
<g><path style="opacity:1" fill="#6a6a6a" d="M 144.5,89.5 C 142.383,91.6545 139.716,92.6545 136.5,92.5C 138.936,91.129 141.603,90.129 144.5,89.5 Z"/></g>
<g><path style="opacity:1" fill="#868686" d="M 43.5,91.5 C 43.0269,92.9063 42.0269,93.573 40.5,93.5C 40.9731,92.0937 41.9731,91.427 43.5,91.5 Z"/></g>
<g><path style="opacity:1" fill="#9b9b9b" d="M 613.5,91.5 C 614.924,93.5145 615.59,95.8478 615.5,98.5C 614.076,96.4855 613.41,94.1522 613.5,91.5 Z"/></g>
<g><path style="opacity:1" fill="#696969" d="M 35.5,97.5 C 34.0892,99.914 32.0892,101.581 29.5,102.5C 30.9108,100.086 32.9108,98.4194 35.5,97.5 Z"/></g>
<g><path style="opacity:1" fill="#090909" d="M 1000.5,114.5 C 1000.82,116.048 1001.82,116.715 1003.5,116.5C 1008.77,119.435 1013.43,123.101 1017.5,127.5C 1017.43,129.027 1018.09,130.027 1019.5,130.5C 1021.17,131.5 1022.5,132.833 1023.5,134.5C 1023.43,136.027 1024.09,137.027 1025.5,137.5C 1025.43,139.027 1026.09,140.027 1027.5,140.5C 1027.43,142.027 1028.09,143.027 1029.5,143.5C 1033.2,148.236 1035.87,153.57 1037.5,159.5C 1037.12,161.698 1037.79,163.365 1039.5,164.5C 1039.5,164.833 1039.5,165.167 1039.5,165.5C 1039.93,169.427 1040.93,173.093 1042.5,176.5C 1049.7,208.464 1045.86,239.131 1031,268.5C 1016.42,291.558 995.588,305.225 968.5,309.5C 964.542,309.251 960.876,309.918 957.5,311.5C 952.167,311.5 946.833,311.5 941.5,311.5C 938.091,310.097 934.425,309.43 930.5,309.5C 918.942,308.204 908.275,304.537 898.5,298.5C 898.027,297.094 897.027,296.427 895.5,296.5C 895.027,295.094 894.027,294.427 892.5,294.5C 891.738,292.738 890.404,291.738 888.5,291.5C 884.243,288.749 880.41,285.416 877,281.5C 872.858,276.537 869.358,271.204 866.5,265.5C 866.715,263.821 866.048,262.821 864.5,262.5C 851.864,233.799 849.197,204.132 856.5,173.5C 858.277,170.495 859.277,167.162 859.5,163.5C 862.022,154.12 866.355,145.787 872.5,138.5C 873.906,138.027 874.573,137.027 874.5,135.5C 874.5,134.833 874.833,134.5 875.5,134.5C 877.587,133.415 878.92,131.749 879.5,129.5C 880.5,127.833 881.833,126.5 883.5,125.5C 885.404,125.262 886.738,124.262 887.5,122.5C 887.5,121.833 887.833,121.5 888.5,121.5C 890.404,121.262 891.738,120.262 892.5,118.5C 894.027,118.573 895.027,117.906 895.5,116.5C 902.03,111.571 909.363,108.238 917.5,106.5C 920.428,106.435 923.095,105.768 925.5,104.5C 951.714,98.3396 976.714,101.673 1000.5,114.5 Z M 975.5,143.5 C 975.973,144.906 976.973,145.573 978.5,145.5C 983.895,149.563 988.229,154.563 991.5,160.5C 991.932,161.71 992.599,162.71 993.5,163.5C 997.237,171.778 999.737,180.444 1001,189.5C 1001.72,202.852 1001.55,216.185 1000.5,229.5C 999.388,231.599 998.721,233.933 998.5,236.5C 998.5,236.833 998.5,237.167 998.5,237.5C 997.463,238.93 996.796,240.597 996.5,242.5C 994.088,247.659 991.421,252.659 988.5,257.5C 987.094,257.973 986.427,258.973 986.5,260.5C 984.833,261.5 983.5,262.833 982.5,264.5C 980.596,264.738 979.262,265.738 978.5,267.5C 976.973,267.427 975.973,268.094 975.5,269.5C 958.983,277.074 942.317,277.407 925.5,270.5C 924.71,269.599 923.71,268.932 922.5,268.5C 911.758,261.078 904.424,251.078 900.5,238.5C 900.405,236.214 899.738,234.214 898.5,232.5C 895.833,215.167 895.833,197.833 898.5,180.5C 899.738,178.786 900.405,176.786 900.5,174.5C 909.949,146.929 929.282,134.762 958.5,138C 964.423,139.141 970.09,140.975 975.5,143.5 Z"/></g>
<g><path style="opacity:1" fill="#0b0b0b" d="M 1218.5,111.5 C 1219.03,113.446 1220.37,114.446 1222.5,114.5C 1226.12,116.453 1229.12,119.119 1231.5,122.5C 1231.43,124.027 1232.09,125.027 1233.5,125.5C 1242.59,136.04 1247.59,148.373 1248.5,162.5C 1249.45,211.156 1249.78,259.823 1249.5,308.5C 1235.43,309.83 1221.26,309.83 1207,308.5C 1206.67,263.5 1206.33,218.5 1206,173.5C 1204.76,163.353 1200.59,154.686 1193.5,147.5C 1192.74,145.738 1191.4,144.738 1189.5,144.5C 1187.72,144.107 1186.05,143.441 1184.5,142.5C 1183.36,140.787 1181.7,140.12 1179.5,140.5C 1161.73,136.445 1145.73,139.945 1131.5,151C 1123.9,159.364 1119.4,169.197 1118,180.5C 1117.67,223.167 1117.33,265.833 1117,308.5C 1102.91,309.49 1088.75,309.824 1074.5,309.5C 1074.5,241.167 1074.5,172.833 1074.5,104.5C 1087.83,104.5 1101.17,104.5 1114.5,104.5C 1114.33,116.171 1114.5,127.838 1115,139.5C 1116.48,138.529 1117.31,137.196 1117.5,135.5C 1117.33,134.508 1117.66,133.842 1118.5,133.5C 1119.91,133.027 1120.57,132.027 1120.5,130.5C 1120.74,128.596 1121.74,127.262 1123.5,126.5C 1125.26,125.738 1126.26,124.404 1126.5,122.5C 1126.83,121.5 1127.5,120.833 1128.5,120.5C 1131.09,119.581 1133.09,117.914 1134.5,115.5C 1138.88,110.97 1144.22,107.97 1150.5,106.5C 1153.15,106.59 1155.49,105.924 1157.5,104.5C 1178.64,99.0172 1198.98,101.351 1218.5,111.5 Z"/></g>
<g><path style="opacity:1" fill="#070707" d="M 1420.5,113.5 C 1420.82,115.048 1421.82,115.715 1423.5,115.5C 1430.42,119.748 1436.42,125.081 1441.5,131.5C 1441.43,133.027 1442.09,134.027 1443.5,134.5C 1444.97,135.436 1445.97,136.77 1446.5,138.5C 1446.43,140.027 1447.09,141.027 1448.5,141.5C 1449.34,141.842 1449.67,142.508 1449.5,143.5C 1449.43,145.027 1450.09,146.027 1451.5,146.5C 1457.63,157.667 1461.3,169.667 1462.5,182.5C 1462.74,186.842 1463.07,191.176 1463.5,195.5C 1463.5,202.5 1463.5,209.5 1463.5,216.5C 1415.83,216.5 1368.17,216.5 1320.5,216.5C 1320.19,220.371 1320.52,224.038 1321.5,227.5C 1323.02,236.903 1326.02,245.903 1330.5,254.5C 1330.43,256.027 1331.09,257.027 1332.5,257.5C 1333.5,257.833 1334.17,258.5 1334.5,259.5C 1334.83,261.833 1336.17,263.167 1338.5,263.5C 1354.64,275.611 1372.64,279.277 1392.5,274.5C 1394.7,274.88 1396.36,274.213 1397.5,272.5C 1403.68,269.581 1409.34,265.914 1414.5,261.5C 1415.91,261.027 1416.57,260.027 1416.5,258.5C 1417.91,258.027 1418.57,257.027 1418.5,255.5C 1419.26,252.982 1420.26,250.649 1421.5,248.5C 1434.5,248.5 1447.5,248.5 1460.5,248.5C 1460.5,250.167 1460.5,251.833 1460.5,253.5C 1454.29,276.885 1439.96,293.385 1417.5,303C 1409.52,306.578 1401.19,308.745 1392.5,309.5C 1388.88,309.322 1385.54,309.989 1382.5,311.5C 1377.17,311.5 1371.83,311.5 1366.5,311.5C 1363.09,310.097 1359.42,309.43 1355.5,309.5C 1353.26,309.795 1351.26,309.461 1349.5,308.5C 1347.49,307.076 1345.15,306.41 1342.5,306.5C 1334.36,304.762 1327.03,301.429 1320.5,296.5C 1320.03,295.094 1319.03,294.427 1317.5,294.5C 1300.02,282.568 1288.68,266.235 1283.5,245.5C 1283.59,242.848 1282.92,240.515 1281.5,238.5C 1280.46,234.251 1279.62,229.918 1279,225.5C 1278.33,213.5 1278.33,201.5 1279,189.5C 1279.86,182.322 1281.36,175.322 1283.5,168.5C 1285.07,166.898 1285.74,164.898 1285.5,162.5C 1287.7,155.776 1290.7,149.443 1294.5,143.5C 1295.91,143.027 1296.57,142.027 1296.5,140.5C 1298.7,136.762 1301.36,133.429 1304.5,130.5C 1306.83,128.833 1308.83,126.833 1310.5,124.5C 1312.22,121.781 1314.55,119.781 1317.5,118.5C 1319.03,118.573 1320.03,117.906 1320.5,116.5C 1336.18,106.243 1353.51,101.243 1372.5,101.5C 1389.64,101.118 1405.64,105.118 1420.5,113.5 Z M 1399.5,143.5 C 1399.97,144.906 1400.97,145.573 1402.5,145.5C 1405.53,148.859 1408.53,152.192 1411.5,155.5C 1411.93,156.71 1412.6,157.71 1413.5,158.5C 1418.03,167.274 1420.69,176.607 1421.5,186.5C 1388.17,187.667 1354.84,187.833 1321.5,187C 1326.97,149.856 1348.3,133.523 1385.5,138C 1390.3,139.569 1394.97,141.403 1399.5,143.5 Z"/></g>
<g><path style="opacity:1" fill="#838383" d="M 29.5,102.5 C 28.9202,104.749 27.5869,106.415 25.5,107.5C 26.0798,105.251 27.4131,103.585 29.5,102.5 Z"/></g>
<g><path style="opacity:1" fill="#777777" d="M 237.5,102.5 C 239.262,103.262 240.262,104.596 240.5,106.5C 238.738,105.738 237.738,104.404 237.5,102.5 Z"/></g>
<g><path style="opacity:1" fill="#686868" d="M 735.5,103.5 C 733.162,105.04 730.495,105.706 727.5,105.5C 729.905,104.232 732.572,103.565 735.5,103.5 Z"/></g>
<g><path style="opacity:1" fill="#595959" d="M 925.5,104.5 C 923.095,105.768 920.428,106.435 917.5,106.5C 919.838,104.96 922.505,104.294 925.5,104.5 Z"/></g>
<g><path style="opacity:1" fill="#7b7b7b" d="M 1157.5,104.5 C 1155.49,105.924 1153.15,106.59 1150.5,106.5C 1152.51,105.076 1154.85,104.41 1157.5,104.5 Z"/></g>
<g><path style="opacity:1" fill="#727272" d="M 726.5,105.5 C 725.365,107.213 723.698,107.88 721.5,107.5C 722.93,106.463 724.597,105.796 726.5,105.5 Z"/></g>
<g><path style="opacity:1" fill="#9d9d9d" d="M 1114.5,104.5 C 1115.33,114.992 1115.83,125.659 1116,136.5C 1116.38,135.944 1116.88,135.611 1117.5,135.5C 1117.31,137.196 1116.48,138.529 1115,139.5C 1114.5,127.838 1114.33,116.171 1114.5,104.5 Z"/></g>
<g><path style="opacity:1" fill="#737373" d="M 24.5,108.5 C 24.573,110.027 23.9063,111.027 22.5,111.5C 22.427,109.973 23.0937,108.973 24.5,108.5 Z"/></g>
<g><path style="opacity:1" fill="#868686" d="M 713.5,111.5 C 713.027,112.906 712.027,113.573 710.5,113.5C 710.973,112.094 711.973,111.427 713.5,111.5 Z"/></g>
<g><path style="opacity:1" fill="#6b6b6b" d="M 791.5,111.5 C 792.71,111.932 793.71,112.599 794.5,113.5C 792.821,113.715 791.821,113.048 791.5,111.5 Z"/></g>
<g><path style="opacity:1" fill="#838383" d="M 1218.5,111.5 C 1220.23,112.026 1221.56,113.026 1222.5,114.5C 1220.37,114.446 1219.03,113.446 1218.5,111.5 Z"/></g>
<g><path style="opacity:1" fill="#979797" d="M 21.5,112.5 C 21.573,114.027 20.9063,115.027 19.5,115.5C 19.427,113.973 20.0937,112.973 21.5,112.5 Z"/></g>
<g><path style="opacity:1" fill="#777777" d="M 1420.5,113.5 C 1421.71,113.932 1422.71,114.599 1423.5,115.5C 1421.82,115.715 1420.82,115.048 1420.5,113.5 Z"/></g>
<g><path style="opacity:1" fill="#6f6f6f" d="M 1000.5,114.5 C 1001.71,114.932 1002.71,115.599 1003.5,116.5C 1001.82,116.715 1000.82,116.048 1000.5,114.5 Z"/></g>
<g><path style="opacity:1" fill="#b3b3b3" d="M 19.5,115.5 C 19.573,117.027 18.9063,118.027 17.5,118.5C 17.427,116.973 18.0937,115.973 19.5,115.5 Z"/></g>
<g><path style="opacity:1" fill="#7b7b7b" d="M 895.5,116.5 C 895.027,117.906 894.027,118.573 892.5,118.5C 892.973,117.094 893.973,116.427 895.5,116.5 Z"/></g>
<g><path style="opacity:1" fill="#7b7b7b" d="M 1320.5,116.5 C 1320.03,117.906 1319.03,118.573 1317.5,118.5C 1317.97,117.094 1318.97,116.427 1320.5,116.5 Z"/></g>
<g><path style="opacity:1" fill="#565656" d="M 1134.5,115.5 C 1133.09,117.914 1131.09,119.581 1128.5,120.5C 1129.91,118.086 1131.91,116.419 1134.5,115.5 Z"/></g>
<g><path style="opacity:1" fill="#717171" d="M 892.5,118.5 C 891.738,120.262 890.404,121.262 888.5,121.5C 889.262,119.738 890.596,118.738 892.5,118.5 Z"/></g>
<g><path style="opacity:1" fill="#929292" d="M 706.5,116.5 C 703.833,119.833 700.833,122.833 697.5,125.5C 699.5,121.5 702.5,118.5 706.5,116.5 Z"/></g>
<g><path style="opacity:1" fill="#7e7e7e" d="M 887.5,122.5 C 886.738,124.262 885.404,125.262 883.5,125.5C 884.262,123.738 885.596,122.738 887.5,122.5 Z"/></g>
<g><path style="opacity:1" fill="#717171" d="M 1231.5,122.5 C 1232.91,122.973 1233.57,123.973 1233.5,125.5C 1232.09,125.027 1231.43,124.027 1231.5,122.5 Z"/></g>
<g><path style="opacity:1" fill="#777777" d="M 1126.5,122.5 C 1126.26,124.404 1125.26,125.738 1123.5,126.5C 1123.74,124.596 1124.74,123.262 1126.5,122.5 Z"/></g>
<g><path style="opacity:1" fill="#878787" d="M 696.5,126.5 C 696.573,128.027 695.906,129.027 694.5,129.5C 694.427,127.973 695.094,126.973 696.5,126.5 Z"/></g>
<g><path style="opacity:1" fill="#909090" d="M 1017.5,127.5 C 1018.91,127.973 1019.57,128.973 1019.5,130.5C 1018.09,130.027 1017.43,129.027 1017.5,127.5 Z"/></g>
<g><path style="opacity:1" fill="#858585" d="M 1310.5,124.5 C 1308.83,126.833 1306.83,128.833 1304.5,130.5C 1305.5,127.5 1307.5,125.5 1310.5,124.5 Z"/></g>
<g><path style="opacity:1" fill="#acacac" d="M 616.5,108.5 C 617.166,112.653 617.499,116.987 617.5,121.5C 617.706,127.749 617.04,133.749 615.5,139.5C 616.339,129.19 616.672,118.857 616.5,108.5 Z"/></g>
<g><path style="opacity:1" fill="#818181" d="M 694.5,129.5 C 694.573,131.027 693.906,132.027 692.5,132.5C 692.427,130.973 693.094,129.973 694.5,129.5 Z"/></g>
<g><path style="opacity:1" fill="#7c7c7c" d="M 879.5,129.5 C 878.92,131.749 877.587,133.415 875.5,134.5C 876.08,132.251 877.413,130.585 879.5,129.5 Z"/></g>
<g><path style="opacity:1" fill="#868686" d="M 1120.5,130.5 C 1120.57,132.027 1119.91,133.027 1118.5,133.5C 1118.43,131.973 1119.09,130.973 1120.5,130.5 Z"/></g>
<g><path style="opacity:1" fill="#858585" d="M 1441.5,131.5 C 1442.91,131.973 1443.57,132.973 1443.5,134.5C 1442.09,134.027 1441.43,133.027 1441.5,131.5 Z"/></g>
<g><path style="opacity:1" fill="#6b6b6b" d="M 11.5,131.5 C 11.8799,133.698 11.2132,135.365 9.5,136.5C 9.79586,134.597 10.4625,132.93 11.5,131.5 Z"/></g>
<g><path style="opacity:1" fill="#989898" d="M 692.5,132.5 C 692.573,134.027 691.906,135.027 690.5,135.5C 690.427,133.973 691.094,132.973 692.5,132.5 Z"/></g>
<g><path style="opacity:1" fill="#a9a9a9" d="M 1023.5,134.5 C 1024.91,134.973 1025.57,135.973 1025.5,137.5C 1024.09,137.027 1023.43,136.027 1023.5,134.5 Z"/></g>
<g><path style="opacity:1" fill="#7e7e7e" d="M 874.5,135.5 C 874.573,137.027 873.906,138.027 872.5,138.5C 872.427,136.973 873.094,135.973 874.5,135.5 Z"/></g>
<g><path style="opacity:1" fill="#878787" d="M 1025.5,137.5 C 1026.91,137.973 1027.57,138.973 1027.5,140.5C 1026.09,140.027 1025.43,139.027 1025.5,137.5 Z"/></g>
<g><path style="opacity:1" fill="#888888" d="M 752.5,140.5 C 754.698,140.12 756.365,140.787 757.5,142.5C 755.597,142.204 753.93,141.537 752.5,140.5 Z"/></g>
<g><path style="opacity:1" fill="#7d7d7d" d="M 1179.5,140.5 C 1181.7,140.12 1183.36,140.787 1184.5,142.5C 1182.6,142.204 1180.93,141.537 1179.5,140.5 Z"/></g>
<g><path style="opacity:1" fill="#7f7f7f" d="M 1446.5,138.5 C 1447.91,138.973 1448.57,139.973 1448.5,141.5C 1447.09,141.027 1446.43,140.027 1446.5,138.5 Z"/></g>
<g><path style="opacity:1" fill="#6f6f6f" d="M 570.5,138.5 C 570.88,140.698 570.213,142.365 568.5,143.5C 568.796,141.597 569.463,139.93 570.5,138.5 Z"/></g>
<g><path style="opacity:1" fill="#868686" d="M 1027.5,140.5 C 1028.91,140.973 1029.57,141.973 1029.5,143.5C 1028.09,143.027 1027.43,142.027 1027.5,140.5 Z"/></g>
<g><path style="opacity:1" fill="#a6a6a6" d="M 1296.5,140.5 C 1296.57,142.027 1295.91,143.027 1294.5,143.5C 1294.43,141.973 1295.09,140.973 1296.5,140.5 Z"/></g>
<g><path style="opacity:1" fill="#848484" d="M 975.5,143.5 C 977.027,143.427 978.027,144.094 978.5,145.5C 976.973,145.573 975.973,144.906 975.5,143.5 Z"/></g>
<g><path style="opacity:1" fill="#777777" d="M 1399.5,143.5 C 1401.03,143.427 1402.03,144.094 1402.5,145.5C 1400.97,145.573 1399.97,144.906 1399.5,143.5 Z"/></g>
<g><path style="opacity:1" fill="#8a8a8a" d="M 762.5,144.5 C 764.027,144.427 765.027,145.094 765.5,146.5C 763.973,146.573 762.973,145.906 762.5,144.5 Z"/></g>
<g><path style="opacity:1" fill="#797979" d="M 1189.5,144.5 C 1191.4,144.738 1192.74,145.738 1193.5,147.5C 1191.6,147.262 1190.26,146.262 1189.5,144.5 Z"/></g>
<g><path style="opacity:1" fill="#909090" d="M 1449.5,143.5 C 1450.91,143.973 1451.57,144.973 1451.5,146.5C 1450.09,146.027 1449.43,145.027 1449.5,143.5 Z"/></g>
<g><path style="opacity:1" fill="#777777" d="M 765.5,146.5 C 767.833,146.833 769.167,148.167 769.5,150.5C 767.833,149.5 766.5,148.167 765.5,146.5 Z"/></g>
<g><path style="opacity:1" fill="#a5a5a5" d="M 8.5,141.5 C 8.59047,144.152 7.92381,146.485 6.5,148.5C 6.40953,145.848 7.07619,143.515 8.5,141.5 Z"/></g>
<g><path style="opacity:1" fill="#c9c9c9" d="M 615.5,141.5 C 615.59,144.152 614.924,146.485 613.5,148.5C 613.41,145.848 614.076,143.515 615.5,141.5 Z"/></g>
<g><path style="opacity:1" fill="#707070" d="M 771.5,152.5 C 773.048,152.821 773.715,153.821 773.5,155.5C 772.599,154.71 771.932,153.71 771.5,152.5 Z"/></g>
<g><path style="opacity:1" fill="#717171" d="M 564.5,152.5 C 564.573,154.027 563.906,155.027 562.5,155.5C 562.427,153.973 563.094,152.973 564.5,152.5 Z"/></g>
<g><path style="opacity:1" fill="#747474" d="M 773.5,155.5 C 775.048,155.821 775.715,156.821 775.5,158.5C 774.599,157.71 773.932,156.71 773.5,155.5 Z"/></g>
<g><path style="opacity:1" fill="#6f6f6f" d="M 1411.5,155.5 C 1413.05,155.821 1413.71,156.821 1413.5,158.5C 1412.6,157.71 1411.93,156.71 1411.5,155.5 Z"/></g>
<g><path style="opacity:1" fill="#6d6d6d" d="M 561.5,156.5 C 561.5,158.5 560.5,159.5 558.5,159.5C 559.167,158.167 560.167,157.167 561.5,156.5 Z"/></g>
<g><path style="opacity:1" fill="#797979" d="M 991.5,160.5 C 993.048,160.821 993.715,161.821 993.5,163.5C 992.599,162.71 991.932,161.71 991.5,160.5 Z"/></g>
<g><path style="opacity:1" fill="#707070" d="M 1037.5,159.5 C 1038.54,160.93 1039.2,162.597 1039.5,164.5C 1037.79,163.365 1037.12,161.698 1037.5,159.5 Z"/></g>
<g><path style="opacity:1" fill="#989898" d="M 821.5,155.5 C 823.011,158.544 823.678,161.878 823.5,165.5C 822.215,162.411 821.549,159.078 821.5,155.5 Z"/></g>
<g><path style="opacity:1" fill="#828282" d="M 554.5,163.5 C 553.738,165.262 552.404,166.262 550.5,166.5C 551.262,164.738 552.596,163.738 554.5,163.5 Z"/></g>
<g><path style="opacity:1" fill="#878787" d="M 1285.5,162.5 C 1285.74,164.898 1285.07,166.898 1283.5,168.5C 1283.59,166.214 1284.26,164.214 1285.5,162.5 Z"/></g>
<g><path style="opacity:1" fill="#8f8f8f" d="M 859.5,163.5 C 859.277,167.162 858.277,170.495 856.5,173.5C 856.723,169.838 857.723,166.505 859.5,163.5 Z"/></g>
<g><path style="opacity:1" fill="#868686" d="M 1039.5,165.5 C 1041.48,168.799 1042.48,172.466 1042.5,176.5C 1040.93,173.093 1039.93,169.427 1039.5,165.5 Z"/></g>
<g><path style="opacity:1" fill="#848484" d="M 536.5,172.5 C 534.162,174.04 531.495,174.706 528.5,174.5C 530.905,173.232 533.572,172.565 536.5,172.5 Z"/></g>
<g><path style="opacity:1" fill="#e5e5e5" d="M 1248.5,162.5 C 1249.32,165.641 1249.82,168.975 1250,172.5C 1250.83,218.002 1250.66,263.335 1249.5,308.5C 1249.78,259.823 1249.45,211.156 1248.5,162.5 Z"/></g>
<g><path style="opacity:1" fill="#959595" d="M 900.5,174.5 C 900.405,176.786 899.738,178.786 898.5,180.5C 898.259,178.102 898.926,176.102 900.5,174.5 Z"/></g>
<g><path style="opacity:1" fill="#545454" d="M 780.5,173.5 C 781.309,175.292 781.809,177.292 782,179.5C 782.5,222.499 782.667,265.499 782.5,308.5C 781.797,263.655 781.13,218.655 780.5,173.5 Z"/></g>
<g><path style="opacity:1" fill="#b4b4b4" d="M 690.5,176.5 C 690.187,181.353 689.521,186.02 688.5,190.5C 688.123,185.547 688.789,180.881 690.5,176.5 Z"/></g>
<g><path style="opacity:1" fill="#b8b8b8" d="M 1462.5,182.5 C 1463.27,183.263 1463.77,184.263 1464,185.5C 1464.5,188.817 1464.67,192.15 1464.5,195.5C 1464.17,195.5 1463.83,195.5 1463.5,195.5C 1463.07,191.176 1462.74,186.842 1462.5,182.5 Z"/></g>
<g><path style="opacity:1" fill="#818181" d="M 220.5,203.5 C 221.906,203.973 222.573,204.973 222.5,206.5C 221.094,206.027 220.427,205.027 220.5,203.5 Z"/></g>
<g><path style="opacity:1" fill="#707070" d="M 222.5,206.5 C 223.906,206.973 224.573,207.973 224.5,209.5C 223.094,209.027 222.427,208.027 222.5,206.5 Z"/></g>
<g><path style="opacity:1" fill="#838383" d="M 1463.5,195.5 C 1463.83,195.5 1464.17,195.5 1464.5,195.5C 1464.5,202.833 1464.5,210.167 1464.5,217.5C 1416.83,217.5 1369.17,217.5 1321.5,217.5C 1321.5,220.833 1321.5,224.167 1321.5,227.5C 1320.52,224.038 1320.19,220.371 1320.5,216.5C 1368.17,216.5 1415.83,216.5 1463.5,216.5C 1463.5,209.5 1463.5,202.5 1463.5,195.5 Z"/></g>
<g><path style="opacity:1" fill="#8c8c8c" d="M 1000.5,229.5 C 1000.83,232.228 1000.16,234.562 998.5,236.5C 998.721,233.933 999.388,231.599 1000.5,229.5 Z"/></g>
<g><path style="opacity:1" fill="#7e7e7e" d="M 898.5,232.5 C 899.738,234.214 900.405,236.214 900.5,238.5C 898.926,236.898 898.259,234.898 898.5,232.5 Z"/></g>
<g><path style="opacity:1" fill="#7a7a7a" d="M 998.5,237.5 C 998.88,239.698 998.213,241.365 996.5,242.5C 996.796,240.597 997.463,238.93 998.5,237.5 Z"/></g>
<g><path style="opacity:1" fill="#cacaca" d="M 1281.5,238.5 C 1282.92,240.515 1283.59,242.848 1283.5,245.5C 1282.08,243.485 1281.41,241.152 1281.5,238.5 Z"/></g>
<g><path style="opacity:1" fill="#e3e3e3" d="M 1421.5,248.5 C 1434.66,247.34 1447.99,247.173 1461.5,248C 1461.83,248.333 1462.17,248.667 1462.5,249C 1461.9,250.622 1461.23,252.122 1460.5,253.5C 1460.5,251.833 1460.5,250.167 1460.5,248.5C 1447.5,248.5 1434.5,248.5 1421.5,248.5 Z"/></g>
<g><path style="opacity:1" fill="#747474" d="M 26.5,256.5 C 28.0481,256.821 28.7148,257.821 28.5,259.5C 27.5987,258.71 26.9321,257.71 26.5,256.5 Z"/></g>
<g><path style="opacity:1" fill="#838383" d="M 1330.5,254.5 C 1331.91,254.973 1332.57,255.973 1332.5,257.5C 1331.09,257.027 1330.43,256.027 1330.5,254.5 Z"/></g>
<g><path style="opacity:1" fill="#919191" d="M 1418.5,255.5 C 1418.57,257.027 1417.91,258.027 1416.5,258.5C 1416.43,256.973 1417.09,255.973 1418.5,255.5 Z"/></g>
<g><path style="opacity:1" fill="#8f8f8f" d="M 988.5,257.5 C 988.573,259.027 987.906,260.027 986.5,260.5C 986.427,258.973 987.094,257.973 988.5,257.5 Z"/></g>
<g><path style="opacity:1" fill="#6d6d6d" d="M 1416.5,258.5 C 1416.57,260.027 1415.91,261.027 1414.5,261.5C 1414.43,259.973 1415.09,258.973 1416.5,258.5 Z"/></g>
<g><path style="opacity:1" fill="#898989" d="M 1334.5,259.5 C 1336.17,260.5 1337.5,261.833 1338.5,263.5C 1336.17,263.167 1334.83,261.833 1334.5,259.5 Z"/></g>
<g><path style="opacity:1" fill="#727272" d="M 864.5,262.5 C 866.048,262.821 866.715,263.821 866.5,265.5C 865.599,264.71 864.932,263.71 864.5,262.5 Z"/></g>
<g><path style="opacity:1" fill="#6f6f6f" d="M 982.5,264.5 C 981.738,266.262 980.404,267.262 978.5,267.5C 979.262,265.738 980.596,264.738 982.5,264.5 Z"/></g>
<g><path style="opacity:1" fill="#6f6f6f" d="M 978.5,267.5 C 978.027,268.906 977.027,269.573 975.5,269.5C 975.973,268.094 976.973,267.427 978.5,267.5 Z"/></g>
<g><path style="opacity:1" fill="#7e7e7e" d="M 922.5,268.5 C 923.71,268.932 924.71,269.599 925.5,270.5C 923.821,270.715 922.821,270.048 922.5,268.5 Z"/></g>
<g><path style="opacity:1" fill="#747474" d="M 1397.5,272.5 C 1396.36,274.213 1394.7,274.88 1392.5,274.5C 1393.93,273.463 1395.6,272.796 1397.5,272.5 Z"/></g>
<g><path style="opacity:1" fill="#757575" d="M 888.5,291.5 C 890.404,291.738 891.738,292.738 892.5,294.5C 890.596,294.262 889.262,293.262 888.5,291.5 Z"/></g>
<g><path style="opacity:1" fill="#8a8a8a" d="M 892.5,294.5 C 894.027,294.427 895.027,295.094 895.5,296.5C 893.973,296.573 892.973,295.906 892.5,294.5 Z"/></g>
<g><path style="opacity:1" fill="#747474" d="M 1317.5,294.5 C 1319.03,294.427 1320.03,295.094 1320.5,296.5C 1318.97,296.573 1317.97,295.906 1317.5,294.5 Z"/></g>
<g><path style="opacity:1" fill="#949494" d="M 895.5,296.5 C 897.027,296.427 898.027,297.094 898.5,298.5C 896.973,298.573 895.973,297.906 895.5,296.5 Z"/></g>
<g><path style="opacity:1" fill="#6e6e6e" d="M 59.5,300.5 C 61.4044,300.738 62.7377,301.738 63.5,303.5C 61.5956,303.262 60.2623,302.262 59.5,300.5 Z"/></g>
<g><path style="opacity:1" fill="#717171" d="M 63.5,303.5 C 65.0269,303.427 66.0269,304.094 66.5,305.5C 64.9731,305.573 63.9731,304.906 63.5,303.5 Z"/></g>
<g><path style="opacity:1" fill="#7a7a7a" d="M 1342.5,306.5 C 1345.15,306.41 1347.49,307.076 1349.5,308.5C 1346.85,308.59 1344.51,307.924 1342.5,306.5 Z"/></g>
<g><path style="opacity:1" fill="#949494" d="M 71.5,308.5 C 78.7423,310.643 86.0756,310.976 93.5,309.5C 93.0825,310.222 92.4158,310.722 91.5,311C 86.5,311.667 81.5,311.667 76.5,311C 74.6854,310.243 73.0188,309.41 71.5,308.5 Z"/></g>
<g><path style="opacity:1" fill="#aeaeae" d="M 331.5,104.5 C 331.5,172.5 331.5,240.5 331.5,308.5C 345.167,308.5 358.833,308.5 372.5,308.5C 372.5,240.5 372.5,172.5 372.5,104.5C 373.499,172.665 373.833,240.998 373.5,309.5C 359.167,309.5 344.833,309.5 330.5,309.5C 330.167,240.998 330.501,172.665 331.5,104.5 Z"/></g>
<g><path style="opacity:1" fill="#000000" d="M 331.5,104.5 C 345.167,104.5 358.833,104.5 372.5,104.5C 372.5,172.5 372.5,240.5 372.5,308.5C 358.833,308.5 345.167,308.5 331.5,308.5C 331.5,240.5 331.5,172.5 331.5,104.5 Z"/></g>
<g><path style="opacity:1" fill="#dbdbdb" d="M 823.5,169.5 C 824.499,215.997 824.832,262.664 824.5,309.5C 810.323,309.829 796.323,309.496 782.5,308.5C 796.167,308.5 809.833,308.5 823.5,308.5C 823.5,262.167 823.5,215.833 823.5,169.5 Z"/></g>
<g><path style="opacity:1" fill="#7a7a7a" d="M 169.5,308.5 C 176.471,309.29 183.471,309.623 190.5,309.5C 188.193,311.047 185.527,311.713 182.5,311.5C 177.824,311.486 173.49,310.486 169.5,308.5 Z"/></g>
<g><path style="opacity:1" fill="#b5b5b5" d="M 930.5,309.5 C 934.425,309.43 938.091,310.097 941.5,311.5C 937.511,311.884 933.845,311.217 930.5,309.5 Z"/></g>
<g><path style="opacity:1" fill="#b1b1b1" d="M 968.5,309.5 C 965.124,311.082 961.458,311.749 957.5,311.5C 960.876,309.918 964.542,309.251 968.5,309.5 Z"/></g>
<g><path style="opacity:1" fill="#b2b2b2" d="M 1355.5,309.5 C 1359.42,309.43 1363.09,310.097 1366.5,311.5C 1362.51,311.884 1358.84,311.217 1355.5,309.5 Z"/></g>
<g><path style="opacity:1" fill="#bbbbbb" d="M 1392.5,309.5 C 1389.49,311.175 1386.16,311.841 1382.5,311.5C 1385.54,309.989 1388.88,309.322 1392.5,309.5 Z"/></g>
</svg>
