<?xml version="1.0" encoding="UTF-8"?>
<!DOCTYPE svg PUBLIC "-//W3C//DTD SVG 1.1//EN" "http://www.w3.org/Graphics/SVG/1.1/DTD/svg11.dtd">
<svg xmlns="http://www.w3.org/2000/svg" version="1.1" width="400px" height="400px" style="shape-rendering:geometricPrecision; text-rendering:geometricPrecision; image-rendering:optimizeQuality; fill-rule:evenodd; clip-rule:evenodd" xmlns:xlink="http://www.w3.org/1999/xlink">
<g><path style="opacity:1" fill="#00fde5" d="M 123.5,75.5 C 146.135,78.4394 155.301,91.1061 151,113.5C 141.159,131.003 127.325,135.17 109.5,126C 97.0956,114.322 95.2622,101.155 104,86.5C 109.341,80.5845 115.841,76.9178 123.5,75.5 Z"/></g>
<g><path style="opacity:1" fill="#00fde5" d="M 199.5,79.5 C 217.976,77.63 229.143,85.63 233,103.5C 232.825,123.675 222.658,133.842 202.5,134C 187.775,130.943 179.775,121.943 178.5,107C 179.387,93.0195 186.387,83.8529 199.5,79.5 Z"/></g>
<g><path style="opacity:1" fill="#01fce4" d="M 48.5,115.5 C 66.2915,113.638 77.4582,121.305 82,138.5C 82.314,159.186 72.1474,169.686 51.5,170C 34.4385,165.927 26.6052,155.094 28,137.5C 30.9872,126.487 37.8205,119.153 48.5,115.5 Z"/></g>
<g><path style="opacity:1" fill="#01fde5" d="M 151.5,135.5 C 196.394,136.451 227.394,157.451 244.5,198.5C 249.409,199.442 254.243,199.109 259,197.5C 259.5,188.84 259.666,180.173 259.5,171.5C 271.378,169.222 277.378,174.055 277.5,186C 277.344,189.2 277.011,192.367 276.5,195.5C 281.179,195.334 285.845,195.501 290.5,196C 291.337,197.011 291.67,198.178 291.5,199.5C 286.758,199.701 282.091,200.368 277.5,201.5C 275.512,215.763 275.012,230.096 276,244.5C 275.796,249.087 277.462,252.754 281,255.5C 294.169,245.151 300.336,231.484 299.5,214.5C 303.247,214.392 306.914,214.892 310.5,216C 312.049,217.214 313.215,218.714 314,220.5C 313.51,226.793 313.01,233.126 312.5,239.5C 312.667,242.167 312.833,244.833 313,247.5C 314.868,248.672 316.702,248.505 318.5,247C 320,244.833 321.5,242.667 323,240.5C 324.443,233.179 325.943,226.013 327.5,219C 333.239,217.806 338.073,219.306 342,223.5C 343.275,232.065 343.942,240.732 344,249.5C 352.02,241.811 359.353,233.477 366,224.5C 366.5,225 367,225.5 367.5,226C 360.819,234.678 354.153,243.344 347.5,252C 351.613,265.987 352.446,280.154 350,294.5C 348.559,297.88 346.726,301.047 344.5,304C 340.086,307.335 335.919,307.169 332,303.5C 330.47,299.91 329.136,296.243 328,292.5C 327.042,275.845 326.375,259.179 326,242.5C 323.916,246.336 321.583,250.003 319,253.5C 306.911,261.303 299.244,258.303 296,244.5C 290.275,255.895 281.275,263.228 269,266.5C 264.014,265.514 261.014,262.514 260,257.5C 257.491,239.536 257.325,221.536 259.5,203.5C 255.116,203.174 250.783,203.508 246.5,204.5C 247.993,210.803 249.326,217.136 250.5,223.5C 246.76,231.986 242.26,239.986 237,247.5C 234.917,250.535 232.25,252.869 229,254.5C 226.41,252.999 225.077,250.665 225,247.5C 224.333,232.833 224.333,218.167 225,203.5C 225.674,202.422 226.674,201.755 228,201.5C 231.837,200.777 235.67,200.111 239.5,199.5C 239.5,198.167 239.5,196.833 239.5,195.5C 234.833,195.5 230.167,195.5 225.5,195.5C 227.148,188.647 226.648,181.98 224,175.5C 219.389,171.181 214.055,169.847 208,171.5C 207.667,179.833 207.333,188.167 207,196.5C 201.979,198.1 196.812,199.1 191.5,199.5C 191.5,200.833 191.5,202.167 191.5,203.5C 196.5,203.5 201.5,203.5 206.5,203.5C 204.732,221.907 205.232,240.24 208,258.5C 209.59,265.214 213.756,267.714 220.5,266C 228.216,263.565 234.383,259.065 239,252.5C 243.095,246.743 246.762,240.743 250,234.5C 246.32,278.181 223.82,307.347 182.5,322C 144.092,331.304 111.259,321.804 84,293.5C 54.4842,254.376 53.1508,214.376 80,173.5C 98.3998,150.745 122.233,138.079 151.5,135.5 Z M 109.5,174.5 C 119.308,172.155 126.142,175.488 130,184.5C 130.418,189.535 130.418,194.535 130,199.5C 132.45,194.716 135.95,190.883 140.5,188C 148.297,185.388 152.631,188.054 153.5,196C 150.867,212.779 142.367,225.612 128,234.5C 127.333,241.167 127.333,247.833 128,254.5C 128.269,257.352 129.103,260.018 130.5,262.5C 126.98,266.525 122.48,268.859 117,269.5C 113.406,268.24 110.739,265.907 109,262.5C 107.874,258.251 107.208,253.918 107,249.5C 106.835,224.47 107.668,199.47 109.5,174.5 Z M 166.5,219.5 C 179.933,217.425 185.099,222.758 182,235.5C 178.11,240.601 172.944,242.935 166.5,242.5C 164.817,249.689 167.483,252.522 174.5,251C 184.644,244.69 192.977,236.523 199.5,226.5C 200.5,227 201.5,227.5 202.5,228C 194.609,243.561 182.609,254.561 166.5,261C 159.586,262.951 154.086,261.118 150,255.5C 146.909,245.006 148.576,235.339 155,226.5C 158.741,223.906 162.575,221.573 166.5,219.5 Z M 343.5,252.5 C 345.48,253.848 346.647,255.848 347,258.5C 347.913,267.576 347.58,276.576 346,285.5C 344.298,274.615 343.465,263.615 343.5,252.5 Z"/></g>
<g><path style="opacity:1" fill="#01fce4" d="M 141.5,191.5 C 143.922,192.692 144.922,194.692 144.5,197.5C 143.05,209.408 137.716,219.075 128.5,226.5C 129.882,217.189 132.382,207.856 136,198.5C 137.697,195.98 139.53,193.647 141.5,191.5 Z"/></g>
<g><path style="opacity:1" fill="#05f9e1" d="M 171.5,227.5 C 180.494,227.34 181.828,230.507 175.5,237C 173.222,237.986 170.889,238.82 168.5,239.5C 167.359,237.579 167.192,235.579 168,233.5C 169.421,231.595 170.588,229.595 171.5,227.5 Z"/></g>
</svg>
