<?xml version="1.0" encoding="UTF-8"?>
<!DOCTYPE svg PUBLIC "-//W3C//DTD SVG 1.1//EN" "http://www.w3.org/Graphics/SVG/1.1/DTD/svg11.dtd">
<svg xmlns="http://www.w3.org/2000/svg" version="1.1" width="500px" height="500px" style="shape-rendering:geometricPrecision; text-rendering:geometricPrecision; image-rendering:optimizeQuality; fill-rule:evenodd; clip-rule:evenodd" xmlns:xlink="http://www.w3.org/1999/xlink">
<g><path style="opacity:0.004" fill="#fefffe" d="M 170.5,85.5 C 171.833,86.1667 171.833,86.1667 170.5,85.5 Z"/></g>
<g><path style="opacity:0.004" fill="#fefffe" d="M 173.5,86.5 C 172.833,85.1667 172.833,85.1667 173.5,86.5 Z"/></g>
<g><path style="opacity:1" fill="#200e0a" d="M 173.5,86.5 C 201.455,92.361 211.621,109.361 204,137.5C 201.581,145.082 197.081,151.082 190.5,155.5C 190.833,156.167 191.167,156.833 191.5,157.5C 195.007,158.663 198.341,159.996 201.5,161.5C 198.789,163.225 196.122,164.225 193.5,164.5C 196.055,165.944 198.721,167.111 201.5,168C 202.738,168.69 202.738,169.19 201.5,169.5C 198.184,168.506 194.851,167.506 191.5,166.5C 189.825,166.868 188.825,167.868 188.5,169.5C 184.855,171.322 181.189,173.156 177.5,175C 172.845,175.499 168.179,175.666 163.5,175.5C 163.189,174.522 162.522,173.855 161.5,173.5C 155.179,177.644 151.846,183.477 151.5,191C 154.117,208.437 156.117,225.937 157.5,243.5C 155.983,243.489 154.816,242.823 154,241.5C 152.979,238.116 151.979,235.116 151,232.5C 150.184,224.441 149.851,216.441 150,208.5C 148.16,207.167 147.66,207.334 148.5,209C 147.552,209.483 146.552,209.649 145.5,209.5C 145.66,207.801 145.494,206.134 145,204.5C 144.338,206.813 143.838,209.146 143.5,211.5C 140.398,217.802 138.064,224.469 136.5,231.5C 135.167,232.167 135.167,232.833 136.5,233.5C 136.57,235.602 137.07,237.602 138,239.5C 138.333,239.167 138.667,238.833 139,238.5C 146.452,241.504 146.285,242.504 138.5,241.5C 137.167,241.167 135.833,240.833 134.5,240.5C 133.25,240.577 132.417,241.244 132,242.5C 131.235,244.066 131.402,245.399 132.5,246.5C 132.5,247.167 132.833,247.5 133.5,247.5C 133.5,248.833 133.5,250.167 133.5,251.5C 135.484,251.383 137.15,252.05 138.5,253.5C 138.291,254.086 137.957,254.586 137.5,255C 141.671,256.81 144.338,259.976 145.5,264.5C 147.997,263.422 149.663,261.589 150.5,259C 152.246,258.529 153.913,257.862 155.5,257C 154.796,255.429 153.463,253.762 151.5,252C 152.46,250.581 153.293,249.081 154,247.5C 155.405,248.731 156.571,250.064 157.5,251.5C 157.5,252.833 157.5,254.167 157.5,255.5C 156.544,257.516 155.21,259.349 153.5,261C 154.056,261.383 154.389,261.883 154.5,262.5C 153.504,262.586 152.671,262.252 152,261.5C 145.155,269.213 139.322,277.547 134.5,286.5C 140.134,289.135 144.467,293.135 147.5,298.5C 146.342,299.95 146.842,300.95 149,301.5C 150.333,301.5 151.667,301.5 153,301.5C 154.668,298.4 156.835,297.9 159.5,300C 159.599,304.247 159.599,308.913 159.5,314C 159.167,314.5 158.833,315 158.5,315.5C 157.158,313.995 155.492,313.328 153.5,313.5C 153.481,315.06 153.148,316.56 152.5,318C 154.192,320.935 154.858,324.102 154.5,327.5C 153.167,327.5 151.833,327.5 150.5,327.5C 149.833,332.833 149.167,338.167 148.5,343.5C 147.5,343.5 146.5,343.5 145.5,343.5C 146.015,347.796 144.848,351.463 142,354.5C 141.691,353.234 141.191,352.067 140.5,351C 143.994,349.25 144.161,347.416 141,345.5C 139.926,346.618 138.76,347.618 137.5,348.5C 138.025,349.192 138.692,349.692 139.5,350C 132.857,354.415 129.524,360.249 129.5,367.5C 133.5,367.833 133.5,368.167 129.5,368.5C 129.649,369.552 129.483,370.552 129,371.5C 127.261,373.043 125.761,374.71 124.5,376.5C 124.167,376.5 123.833,376.5 123.5,376.5C 123.708,372.879 124.708,369.546 126.5,366.5C 127.338,366.158 127.672,365.492 127.5,364.5C 127.5,363.833 127.167,363.5 126.5,363.5C 125.833,364.167 125.167,364.833 124.5,365.5C 113.083,365.19 101.583,366.19 90,368.5C 84.1335,367.127 78.3002,365.627 72.5,364C 71.3468,361.384 70.3468,358.718 69.5,356C 70.0762,342.674 70.4095,329.174 70.5,315.5C 72.1239,313.001 72.4572,310.335 71.5,307.5C 71.5,307.167 71.5,306.833 71.5,306.5C 72.4013,305.71 73.0679,304.71 73.5,303.5C 74.2891,303.217 74.9558,302.717 75.5,302C 80.2291,301.727 84.8958,301.061 89.5,300C 88.8333,299.667 88.1667,299.333 87.5,299C 88.624,298.751 89.624,298.251 90.5,297.5C 91.7559,293.984 93.7559,290.984 96.5,288.5C 94.8,283.109 95.6333,278.109 99,273.5C 103.21,270.061 107.877,267.394 113,265.5C 116.255,259.992 119.255,254.325 122,248.5C 130.08,226.421 137.58,204.421 144.5,182.5C 144.291,181.914 143.957,181.414 143.5,181C 148.174,175.327 153.174,169.994 158.5,165C 150.442,161.944 144.608,156.444 141,148.5C 139.038,138.273 138.038,127.94 138,117.5C 129.143,109.432 129.643,101.932 139.5,95C 150.958,92.4543 162.291,89.6209 173.5,86.5 Z M 181.5,163.5 C 178.106,167.466 173.773,168.966 168.5,168C 166.947,164.783 165.947,161.283 165.5,157.5C 155.957,156.814 150.124,151.814 148,142.5C 146.836,134.541 146.336,126.541 146.5,118.5C 155.691,119.56 164.691,118.56 173.5,115.5C 173.4,122.377 175.733,128.21 180.5,133C 181.873,133.875 183.373,134.375 185,134.5C 187.639,133.215 190.306,131.882 193,130.5C 196.205,131.798 197.205,134.132 196,137.5C 193,143.167 188.667,147.5 183,150.5C 182.825,155.019 182.325,159.353 181.5,163.5 Z M 145.5,209.5 C 144.662,209.842 144.328,210.508 144.5,211.5C 144.167,211.5 143.833,211.5 143.5,211.5C 143.838,209.146 144.338,206.813 145,204.5C 145.494,206.134 145.66,207.801 145.5,209.5 Z M 143.5,211.5 C 143.953,212.458 144.619,213.292 145.5,214C 143.175,218.235 141.342,222.735 140,227.5C 139.26,229.319 138.093,230.652 136.5,231.5C 138.064,224.469 140.398,217.802 143.5,211.5 Z M 128.5,253.5 C 132.754,255.749 136.754,258.415 140.5,261.5C 137.05,266.582 133.216,271.916 129,277.5C 126.559,296.634 118.226,299.634 104,286.5C 103.041,282.579 104.208,279.412 107.5,277C 111.099,275.691 114.599,274.191 118,272.5C 121.512,266.14 125.012,259.806 128.5,253.5 Z M 130.5,295.5 C 138.6,298.063 138.267,298.896 129.5,298C 130.252,297.329 130.586,296.496 130.5,295.5 Z M 109.5,309.5 C 108.183,309.179 106.849,308.846 105.5,308.5C 103.238,309.467 100.905,310.134 98.5,310.5C 99.0471,315.355 99.0471,320.022 98.5,324.5C 97.9454,318.432 95.9454,312.932 92.5,308C 97.285,306.126 102.285,305.46 107.5,306C 108.823,306.816 109.489,307.983 109.5,309.5 Z M 146.5,308.5 C 137.106,309.106 127.773,310.106 118.5,311.5C 117.766,310.292 117.433,308.959 117.5,307.5C 120.713,307.81 123.713,307.477 126.5,306.5C 131.866,306.677 137.2,306.344 142.5,305.5C 144.588,305.62 145.922,306.62 146.5,308.5 Z M 78.5,317.5 C 79.5,317.5 80.5,317.5 81.5,317.5C 81.8325,331.183 81.4992,344.85 80.5,358.5C 79.914,358.291 79.414,357.957 79,357.5C 78.5001,344.171 78.3334,330.837 78.5,317.5 Z M 89.5,328.5 C 91.0652,330.509 92.0652,332.843 92.5,335.5C 91.2732,343.722 90.6066,351.722 90.5,359.5C 89.5058,349.347 89.1724,339.014 89.5,328.5 Z"/></g>
<g><path style="opacity:1" fill="#1f0d09" d="M 298.5,159.5 C 309.805,158.306 314.972,163.306 314,174.5C 310.677,180.908 305.511,183.075 298.5,181C 291.303,176.695 289.803,170.862 294,163.5C 295.397,161.93 296.897,160.596 298.5,159.5 Z"/></g>
<g><path style="opacity:1" fill="#b26a45" d="M 188.5,169.5 C 194.656,171.164 200.656,173.33 206.5,176C 208.894,177.952 210.394,180.452 211,183.5C 212.707,181.963 214.207,180.296 215.5,178.5C 217.822,179.802 219.155,181.802 219.5,184.5C 217.224,184.244 216.057,182.91 216,180.5C 214.978,181.354 214.145,182.354 213.5,183.5C 210.167,185.252 208.501,184.252 208.5,180.5C 204.19,181.08 199.857,181.414 195.5,181.5C 195.5,184.167 195.5,186.833 195.5,189.5C 194.167,189.5 192.833,189.5 191.5,189.5C 191.223,184.767 191.557,180.1 192.5,175.5C 191.418,175.251 190.085,175.085 188.5,175C 190.059,174.02 191.726,173.187 193.5,172.5C 192.333,172.167 191.167,171.833 190,171.5C 187.337,171.826 184.837,172.659 182.5,174C 180.092,177.498 177.092,179.498 173.5,180C 173.833,180.333 174.167,180.667 174.5,181C 172.867,184.258 170.533,186.925 167.5,189C 165.243,188.563 162.91,188.063 160.5,187.5C 159.877,190 159.543,192.5 159.5,195C 160,195.5 160.5,196 161,196.5C 161.667,203.167 162.333,209.833 163,216.5C 163.837,218.351 164.671,220.184 165.5,222C 163.955,223.822 163.288,225.989 163.5,228.5C 164.039,233.194 164.706,237.861 165.5,242.5C 181.167,242.5 196.833,242.5 212.5,242.5C 212.629,240.784 212.962,239.117 213.5,237.5C 214.468,239.607 214.802,241.941 214.5,244.5C 196.992,244.83 179.659,244.497 162.5,243.5C 160.982,225.892 158.649,208.392 155.5,191C 155.362,184.325 158.028,179.158 163.5,175.5C 168.179,175.666 172.845,175.499 177.5,175C 181.189,173.156 184.855,171.322 188.5,169.5 Z"/></g>
<g><path style="opacity:0.004" fill="#fefffe" d="M 342.5,184.5 C 343.833,185.167 343.833,185.167 342.5,184.5 Z"/></g>
<g><path style="opacity:1" fill="#200e0b" d="M 341.5,186.5 C 350.491,185.987 353.157,189.82 349.5,198C 341.243,200.96 337.743,198.127 339,189.5C 340.045,188.627 340.878,187.627 341.5,186.5 Z"/></g>
<g><path style="opacity:1" fill="#200e0b" d="M 381.5,210.5 C 391.103,211.031 394.937,216.031 393,225.5C 388.755,232.017 383.255,233.183 376.5,229C 374.17,225.721 372.836,222.054 372.5,218C 375.104,214.884 378.104,212.384 381.5,210.5 Z"/></g>
<g><path style="opacity:1" fill="#ba6a3f" d="M 219.5,184.5 C 227.266,197.036 233.766,210.369 239,224.5C 239.499,228.152 239.665,231.818 239.5,235.5C 232.833,235.5 226.167,235.5 219.5,235.5C 217.202,222.275 212.536,209.941 205.5,198.5C 200.981,196.412 199.148,197.746 200,202.5C 206.186,213.564 210.686,225.231 213.5,237.5C 212.962,239.117 212.629,240.784 212.5,242.5C 196.833,242.5 181.167,242.5 165.5,242.5C 164.706,237.861 164.039,233.194 163.5,228.5C 163.288,225.989 163.955,223.822 165.5,222C 164.671,220.184 163.837,218.351 163,216.5C 162.333,209.833 161.667,203.167 161,196.5C 160.5,196 160,195.5 159.5,195C 159.543,192.5 159.877,190 160.5,187.5C 162.91,188.063 165.243,188.563 167.5,189C 170.533,186.925 172.867,184.258 174.5,181C 174.167,180.667 173.833,180.333 173.5,180C 177.092,179.498 180.092,177.498 182.5,174C 184.837,172.659 187.337,171.826 190,171.5C 191.167,171.833 192.333,172.167 193.5,172.5C 191.726,173.187 190.059,174.02 188.5,175C 190.085,175.085 191.418,175.251 192.5,175.5C 191.557,180.1 191.223,184.767 191.5,189.5C 192.833,189.5 194.167,189.5 195.5,189.5C 195.5,186.833 195.5,184.167 195.5,181.5C 199.857,181.414 204.19,181.08 208.5,180.5C 208.501,184.252 210.167,185.252 213.5,183.5C 214.145,182.354 214.978,181.354 216,180.5C 216.057,182.91 217.224,184.244 219.5,184.5 Z"/></g>
<g><path style="opacity:1" fill="#ac6c4b" d="M 143.5,211.5 C 143.833,211.5 144.167,211.5 144.5,211.5C 146.195,213.732 147.362,216.399 148,219.5C 149.341,226.574 149.841,233.574 149.5,240.5C 144.618,238.596 140.285,235.929 136.5,232.5C 136.5,232.167 136.5,231.833 136.5,231.5C 138.093,230.652 139.26,229.319 140,227.5C 141.342,222.735 143.175,218.235 145.5,214C 144.619,213.292 143.953,212.458 143.5,211.5 Z"/></g>
<g><path style="opacity:1" fill="#270c05" d="M 201.5,161.5 C 205.689,162.221 209.355,163.887 212.5,166.5C 213.383,168.91 214.55,171.243 216,173.5C 216.333,173.167 216.667,172.833 217,172.5C 224.822,179.445 230.155,188.112 233,198.5C 236.749,200.462 237.249,202.962 234.5,206C 235.439,207.944 236.773,209.611 238.5,211C 237.692,211.308 237.025,211.808 236.5,212.5C 239.147,214.941 241.48,218.275 243.5,222.5C 243.629,225.064 243.296,227.731 242.5,230.5C 243.167,231.167 243.833,231.833 244.5,232.5C 243.448,234.11 243.448,235.777 244.5,237.5C 244.081,238.672 243.415,239.672 242.5,240.5C 247.529,241.483 248.696,244.15 246,248.5C 245.396,246.314 244.23,246.148 242.5,248C 239,248.167 235.5,248.333 232,248.5C 228.098,248.488 224.598,247.821 221.5,246.5C 219.621,245.659 217.621,245.325 215.5,245.5C 215.517,247.565 215.85,249.565 216.5,251.5C 198.833,251.5 181.167,251.5 163.5,251.5C 161.5,251.5 159.5,251.5 157.5,251.5C 156.571,250.064 155.405,248.731 154,247.5C 153.293,249.081 152.46,250.581 151.5,252C 153.463,253.762 154.796,255.429 155.5,257C 153.913,257.862 152.246,258.529 150.5,259C 149.663,261.589 147.997,263.422 145.5,264.5C 144.338,259.976 141.671,256.81 137.5,255C 137.957,254.586 138.291,254.086 138.5,253.5C 137.15,252.05 135.484,251.383 133.5,251.5C 133.5,250.167 133.5,248.833 133.5,247.5C 137.549,250.613 141.716,253.613 146,256.5C 148.409,254.691 149.409,252.358 149,249.5C 145.6,246.586 142.1,243.92 138.5,241.5C 146.285,242.504 146.452,241.504 139,238.5C 138.667,238.833 138.333,239.167 138,239.5C 137.07,237.602 136.57,235.602 136.5,233.5C 136.5,233.167 136.5,232.833 136.5,232.5C 140.285,235.929 144.618,238.596 149.5,240.5C 149.841,233.574 149.341,226.574 148,219.5C 147.362,216.399 146.195,213.732 144.5,211.5C 144.328,210.508 144.662,209.842 145.5,209.5C 146.552,209.649 147.552,209.483 148.5,209C 147.66,207.334 148.16,207.167 150,208.5C 149.851,216.441 150.184,224.441 151,232.5C 151.979,235.116 152.979,238.116 154,241.5C 154.816,242.823 155.983,243.489 157.5,243.5C 159.167,243.5 160.833,243.5 162.5,243.5C 179.659,244.497 196.992,244.83 214.5,244.5C 214.802,241.941 214.468,239.607 213.5,237.5C 210.686,225.231 206.186,213.564 200,202.5C 199.148,197.746 200.981,196.412 205.5,198.5C 212.536,209.941 217.202,222.275 219.5,235.5C 226.167,235.5 232.833,235.5 239.5,235.5C 239.665,231.818 239.499,228.152 239,224.5C 233.766,210.369 227.266,197.036 219.5,184.5C 219.155,181.802 217.822,179.802 215.5,178.5C 211.35,174.681 206.683,171.681 201.5,169.5C 202.738,169.19 202.738,168.69 201.5,168C 198.721,167.111 196.055,165.944 193.5,164.5C 196.122,164.225 198.789,163.225 201.5,161.5 Z"/></g>
<g><path style="opacity:1" fill="#ad694a" d="M 221.5,246.5 C 221.5,244.833 221.5,243.167 221.5,241.5C 227.842,241.334 234.175,241.5 240.5,242C 241.406,243.699 241.739,245.533 241.5,247.5C 234.745,247.793 228.078,247.46 221.5,246.5 Z"/></g>
<g><path style="opacity:1" fill="#b4704c" d="M 134.5,240.5 C 135.833,240.833 137.167,241.167 138.5,241.5C 142.1,243.92 145.6,246.586 149,249.5C 149.409,252.358 148.409,254.691 146,256.5C 141.716,253.613 137.549,250.613 133.5,247.5C 132.833,247.5 132.5,247.167 132.5,246.5C 132.604,244.297 133.27,242.297 134.5,240.5 Z"/></g>
<g><path style="opacity:1" fill="#b87654" d="M 163.5,251.5 C 181.167,251.5 198.833,251.5 216.5,251.5C 216.5,252.167 216.5,252.833 216.5,253.5C 207.859,254.832 198.859,255.498 189.5,255.5C 179.862,255.143 170.529,255.143 161.5,255.5C 160.833,255.5 160.167,255.5 159.5,255.5C 159.196,254.85 158.863,254.183 158.5,253.5C 160.291,252.83 161.958,252.163 163.5,251.5 Z"/></g>
<g><path style="opacity:1" fill="#754835" d="M 216.5,253.5 C 217.404,254.209 217.737,255.209 217.5,256.5C 198.659,256.83 179.993,256.497 161.5,255.5C 170.529,255.143 179.862,255.143 189.5,255.5C 198.859,255.498 207.859,254.832 216.5,253.5 Z"/></g>
<g><path style="opacity:0.004" fill="#fefffe" d="M 275.5,263.5 C 275.5,264.167 275.5,264.833 275.5,265.5C 272.813,266.061 272.813,265.394 275.5,263.5 Z"/></g>
<g><path style="opacity:1" fill="#1f0c08" d="M 212.5,166.5 C 217.715,168.876 221.882,172.543 225,177.5C 233.196,190.744 239.862,204.744 245,219.5C 246.918,228.091 248.418,236.758 249.5,245.5C 247.498,254.032 246.998,262.699 248,271.5C 253.732,279.856 254.399,288.523 250,297.5C 248.926,298.618 247.76,299.618 246.5,300.5C 249.823,307.126 253.489,313.46 257.5,319.5C 256.503,319.47 255.836,319.97 255.5,321C 254.983,323.077 254.316,325.077 253.5,327C 256.886,330.208 260.886,332.708 265.5,334.5C 265.833,334.833 266.167,335.167 266.5,335.5C 265.675,336.386 264.675,336.719 263.5,336.5C 254.186,330.685 246.686,323.019 241,313.5C 239.539,309.768 237.706,306.268 235.5,303C 230.876,304.027 226.376,303.527 222,301.5C 221.833,301.833 221.667,302.167 221.5,302.5C 233.244,322.916 245.077,343.25 257,363.5C 257.651,365.235 257.485,366.902 256.5,368.5C 259.41,374.239 262.91,379.572 267,384.5C 267.667,385.833 267.667,387.167 267,388.5C 261.136,394.699 254.969,400.532 248.5,406C 260.495,406.5 272.495,406.667 284.5,406.5C 285.528,407.074 286.528,407.407 287.5,407.5C 278.221,409.16 268.887,410.493 259.5,411.5C 254.882,410.886 250.382,409.886 246,408.5C 245.667,408.833 245.333,409.167 245,409.5C 243.488,407.043 242.154,407.043 241,409.5C 240.439,408.978 239.772,408.645 239,408.5C 234.31,408.958 229.81,409.958 225.5,411.5C 217.984,409.33 210.318,408.33 202.5,408.5C 188.114,409.808 174.114,409.808 160.5,408.5C 157.906,410.887 155.406,410.887 153,408.5C 149.491,410.22 147.158,409.22 146,405.5C 145.167,407 144,408.167 142.5,409C 136.584,409.19 130.751,409.69 125,410.5C 118.916,409.358 112.749,409.191 106.5,410C 103.928,410.432 102.594,411.932 102.5,414.5C 98.0936,413.106 97.4269,410.606 100.5,407C 108.5,406.667 116.5,406.333 124.5,406C 116.347,402.426 108.68,398.093 101.5,393C 99.4256,390.698 98.0923,388.032 97.5,385C 104.948,382.222 112.615,381.722 120.5,383.5C 123.175,383.469 124.509,382.136 124.5,379.5C 124.5,379.167 124.5,378.833 124.5,378.5C 125.506,378.062 125.506,377.396 124.5,376.5C 125.761,374.71 127.261,373.043 129,371.5C 129.483,370.552 129.649,369.552 129.5,368.5C 133.5,368.167 133.5,367.833 129.5,367.5C 129.524,360.249 132.857,354.415 139.5,350C 138.692,349.692 138.025,349.192 137.5,348.5C 138.76,347.618 139.926,346.618 141,345.5C 144.161,347.416 143.994,349.25 140.5,351C 141.191,352.067 141.691,353.234 142,354.5C 144.848,351.463 146.015,347.796 145.5,343.5C 146.5,343.5 147.5,343.5 148.5,343.5C 149.167,338.167 149.833,332.833 150.5,327.5C 151.833,327.5 153.167,327.5 154.5,327.5C 154.858,324.102 154.192,320.935 152.5,318C 153.148,316.56 153.481,315.06 153.5,313.5C 155.492,313.328 157.158,313.995 158.5,315.5C 158.833,315 159.167,314.5 159.5,314C 159.599,308.913 159.599,304.247 159.5,300C 156.835,297.9 154.668,298.4 153,301.5C 151.667,301.5 150.333,301.5 149,301.5C 146.842,300.95 146.342,299.95 147.5,298.5C 149.467,298.739 151.301,298.406 153,297.5C 154.412,293.386 155.912,288.886 157.5,284C 155.984,276.879 154.984,269.712 154.5,262.5C 154.389,261.883 154.056,261.383 153.5,261C 155.21,259.349 156.544,257.516 157.5,255.5C 158.167,255.5 158.833,255.5 159.5,255.5C 160.167,255.5 160.833,255.5 161.5,255.5C 179.993,256.497 198.659,256.83 217.5,256.5C 217.737,255.209 217.404,254.209 216.5,253.5C 216.5,252.833 216.5,252.167 216.5,251.5C 215.85,249.565 215.517,247.565 215.5,245.5C 217.621,245.325 219.621,245.659 221.5,246.5C 224.598,247.821 228.098,248.488 232,248.5C 235.5,248.333 239,248.167 242.5,248C 244.23,246.148 245.396,246.314 246,248.5C 248.696,244.15 247.529,241.483 242.5,240.5C 243.415,239.672 244.081,238.672 244.5,237.5C 243.448,235.777 243.448,234.11 244.5,232.5C 243.833,231.833 243.167,231.167 242.5,230.5C 243.296,227.731 243.629,225.064 243.5,222.5C 241.48,218.275 239.147,214.941 236.5,212.5C 237.025,211.808 237.692,211.308 238.5,211C 236.773,209.611 235.439,207.944 234.5,206C 237.249,202.962 236.749,200.462 233,198.5C 230.155,188.112 224.822,179.445 217,172.5C 216.667,172.833 216.333,173.167 216,173.5C 214.55,171.243 213.383,168.91 212.5,166.5 Z M 225.5,254.5 C 229.869,254.467 234.202,254.8 238.5,255.5C 238.334,260.844 238.501,266.177 239,271.5C 243.741,277.391 245.408,284.058 244,291.5C 243.326,290.422 242.326,289.755 241,289.5C 238.178,290.275 235.344,290.942 232.5,291.5C 232.773,293.958 231.773,295.625 229.5,296.5C 221.038,293.564 217.872,287.897 220,279.5C 222.374,277.461 224.374,275.128 226,272.5C 226.3,266.496 226.134,260.496 225.5,254.5 Z M 186.5,331.5 C 199.47,348.749 211.97,366.416 224,384.5C 226.409,387.041 229.076,388.374 232,388.5C 233.187,390.044 233.52,391.711 233,393.5C 228.457,397.342 224.291,401.509 220.5,406C 196.5,406.667 172.5,406.667 148.5,406C 150.795,401.241 152.962,396.408 155,391.5C 156,390.833 157,390.167 158,389.5C 168.311,370.545 177.811,351.211 186.5,331.5 Z M 132.5,381.5 C 137.303,384.276 142.303,386.776 147.5,389C 146.845,390.487 145.845,391.653 144.5,392.5C 140.34,390.588 136.34,388.421 132.5,386C 131.587,384.586 131.587,383.086 132.5,381.5 Z M 243.5,381.5 C 243.167,382.167 242.833,382.833 242.5,383.5C 241.833,383.5 241.5,383.833 241.5,384.5C 240.761,384.631 240.094,384.464 239.5,384C 240.471,382.519 241.804,381.685 243.5,381.5 Z"/></g>
<g><path style="opacity:1" fill="#1f0d09" d="M 441.5,414.5 C 441.5,414.167 441.5,413.833 441.5,413.5C 441.649,412.448 441.483,411.448 441,410.5C 437.302,410.531 433.469,411.198 429.5,412.5C 425.386,410.095 421.219,410.095 417,412.5C 416.05,411.978 415.216,411.311 414.5,410.5C 413.914,410.709 413.414,411.043 413,411.5C 410.528,410.8 408.195,409.8 406,408.5C 402.935,410.983 399.935,410.983 397,408.5C 393.788,409.269 390.288,409.435 386.5,409C 385.833,408.667 385.167,408.333 384.5,408C 385.416,407.722 386.082,407.222 386.5,406.5C 395.5,406.5 404.5,406.5 413.5,406.5C 413.165,401.823 412.665,397.156 412,392.5C 411.743,390.093 410.576,388.427 408.5,387.5C 410.025,385.6 411.025,383.767 411.5,382C 409.676,381.34 408.343,380.173 407.5,378.5C 411.515,379.591 415.015,381.591 418,384.5C 420.165,391.316 421.499,398.316 422,405.5C 423.049,406.517 424.216,406.684 425.5,406C 427.621,397.067 429.621,388.067 431.5,379C 430.869,373.24 428.536,368.407 424.5,364.5C 424.5,364.167 424.5,363.833 424.5,363.5C 423.833,362.167 423.167,362.167 422.5,363.5C 421.833,363.5 421.5,363.833 421.5,364.5C 410.138,368.053 402.305,364.387 398,353.5C 397.055,349.886 396.388,346.219 396,342.5C 393.5,349 389,353.5 382.5,356C 373.699,359.652 364.699,360.319 355.5,358C 347.77,355.041 344.937,349.541 347,341.5C 348.86,337.78 350.693,334.114 352.5,330.5C 354.104,329.713 354.771,328.38 354.5,326.5C 357.44,322.531 358.107,318.531 356.5,314.5C 354.823,318.517 353.157,322.517 351.5,326.5C 350.599,327.29 349.932,328.29 349.5,329.5C 348.833,329.5 348.5,329.833 348.5,330.5C 348.5,330.833 348.5,331.167 348.5,331.5C 346.364,333.812 344.364,336.312 342.5,339C 342.833,339.333 343.167,339.667 343.5,340C 341.884,340.615 340.551,341.615 339.5,343C 333.799,344.754 328.132,346.254 322.5,347.5C 320.451,347.294 320.117,346.461 321.5,345C 323.076,344.56 324.41,343.727 325.5,342.5C 326.609,343.59 327.609,343.59 328.5,342.5C 327.975,341.808 327.308,341.308 326.5,341C 326.888,339.192 326.888,337.525 326.5,336C 329.167,335.333 329.167,334.667 326.5,334C 327.695,330.262 326.529,327.429 323,325.5C 321.745,326.211 320.579,327.044 319.5,328C 323.981,332.939 322.647,335.606 315.5,336C 317.301,336.317 317.634,336.984 316.5,338C 318.032,338.7 319.032,339.866 319.5,341.5C 319.642,343.382 319.142,345.382 318,347.5C 317.583,346.244 316.75,345.577 315.5,345.5C 315.378,342.708 314.044,340.708 311.5,339.5C 311.741,335.446 310.074,334.113 306.5,335.5C 305.833,334.833 305.167,334.167 304.5,333.5C 302.997,334.052 301.331,334.052 299.5,333.5C 298.948,335.331 298.948,336.997 299.5,338.5C 296.826,339.84 294.159,341.173 291.5,342.5C 288.352,341.86 288.019,340.86 290.5,339.5C 289.807,338.482 289.141,337.482 288.5,336.5C 288.762,335.022 288.429,333.689 287.5,332.5C 276.67,329.5 269.17,322.833 265,312.5C 264.333,309.5 264.333,306.5 265,303.5C 271.64,292.511 274.474,280.678 273.5,268C 274.756,267.583 275.423,266.75 275.5,265.5C 275.5,264.833 275.5,264.167 275.5,263.5C 276.774,262.811 276.774,261.977 275.5,261C 276.061,259.324 277.061,257.991 278.5,257C 279.42,251.994 282.42,247.328 287.5,243C 291.952,242.14 295.452,243.64 298,247.5C 301.226,252.159 303.893,257.159 306,262.5C 309.548,255.901 313.714,249.735 318.5,244C 321.167,242 323.833,242 326.5,244C 337.708,256.615 343.541,271.448 344,288.5C 348.765,293.331 350.599,298.998 349.5,305.5C 365.496,306.253 381.496,306.92 397.5,307.5C 397.78,304.728 397.113,302.228 395.5,300C 378.59,303.42 372.09,296.586 376,279.5C 385.389,263.438 398.889,258.605 416.5,265C 430.903,273.977 436.403,286.81 433,303.5C 431.053,311.244 427.22,317.744 421.5,323C 423.734,326.636 425.568,330.469 427,334.5C 428.481,343.537 430.148,352.537 432,361.5C 438.965,368.069 441.298,376.069 439,385.5C 437.338,392.481 435.838,399.481 434.5,406.5C 438.514,406.334 442.514,406.501 446.5,407C 450.203,412.897 448.536,415.397 441.5,414.5 Z M 399.5,270.5 C 417.455,271.286 426.288,280.62 426,298.5C 425.333,297.167 424.667,297.167 424,298.5C 418.877,285.022 409.377,280.188 395.5,284C 393.257,286.488 391.257,289.154 389.5,292C 385.192,293.744 382.859,292.077 382.5,287C 384.742,277.924 390.409,272.424 399.5,270.5 Z M 297.5,270.5 C 300.524,270.947 300.857,271.78 298.5,273C 299.167,273.333 299.833,273.667 300.5,274C 298.515,278.365 298.182,282.865 299.5,287.5C 306.853,280.28 313.187,281.114 318.5,290C 329.169,291.356 334.002,297.523 333,308.5C 334.539,310.641 335.872,312.641 337,314.5C 322.495,328.167 305.995,331.334 287.5,324C 290.289,323.759 292.956,323.092 295.5,322C 297.819,318.788 300.819,316.454 304.5,315C 305.833,313 305.833,311 304.5,309C 303.5,308.333 302.5,308.333 301.5,309C 298.079,312.112 294.079,313.112 289.5,312C 286.988,310.127 287.154,308.293 290,306.5C 291.164,301.862 289.33,299.862 284.5,300.5C 281.424,299.949 279.424,301.116 278.5,304C 280.138,306.433 281.304,308.933 282,311.5C 280.89,309.963 279.39,309.297 277.5,309.5C 277.357,311.262 277.691,312.929 278.5,314.5C 280.582,315.366 281.915,316.866 282.5,319C 282.167,319.833 281.833,320.667 281.5,321.5C 271.893,315.23 270.393,307.563 277,298.5C 278.207,293.332 279.874,288.332 282,283.5C 284.617,281.025 286.784,281.525 288.5,285C 289.167,285.667 289.833,285.667 290.5,285C 291.64,279.554 293.973,274.721 297.5,270.5 Z M 326.5,273.5 C 327.075,268.394 325.741,263.894 322.5,260C 321.255,259.209 319.922,258.709 318.5,258.5C 319.415,256.246 320.748,254.246 322.5,252.5C 329.295,260.366 333.295,269.533 334.5,280C 331.195,278.886 328.528,276.719 326.5,273.5 Z M 289.5,252.5 C 292.879,255.567 295.546,259.234 297.5,263.5C 295.65,265.829 293.483,266.163 291,264.5C 289.373,264.625 287.873,265.125 286.5,266C 285.37,268.428 283.87,270.595 282,272.5C 282.808,265.247 285.308,258.58 289.5,252.5 Z M 423.5,299.5 C 426.001,299.511 426.168,300.178 424,301.5C 423.536,300.906 423.369,300.239 423.5,299.5 Z M 354.5,326.5 C 354.771,328.38 354.104,329.713 352.5,330.5C 351.791,329.596 350.791,329.263 349.5,329.5C 349.932,328.29 350.599,327.29 351.5,326.5C 353.157,322.517 354.823,318.517 356.5,314.5C 358.107,318.531 357.44,322.531 354.5,326.5 Z"/></g>
<g><path style="opacity:1" fill="#200f0b" d="M 306.5,289.5 C 310.089,289.621 311.756,291.454 311.5,295C 311.293,300.846 308.793,302.346 304,299.5C 302.08,295.434 302.913,292.101 306.5,289.5 Z"/></g>
<g><path style="opacity:1" fill="#21110e" d="M 284.5,287.5 C 288.332,289.234 289.498,292.234 288,296.5C 283.917,298.572 281.75,297.405 281.5,293C 281.12,290.297 282.12,288.463 284.5,287.5 Z"/></g>
<g><path style="opacity:0.3" fill="#4a4346" d="M 318.5,258.5 C 319.922,258.709 321.255,259.209 322.5,260C 325.741,263.894 327.075,268.394 326.5,273.5C 322.868,271.695 319.368,269.695 316,267.5C 314.93,263.858 315.764,260.858 318.5,258.5 Z"/></g>
<g><path style="opacity:0.004" fill="#fefffe" d="M 393.5,300.5 C 394.833,301.167 394.833,301.167 393.5,300.5 Z"/></g>
<g><path style="opacity:0.004" fill="#fefffe" d="M 73.5,303.5 C 73.0679,304.71 72.4013,305.71 71.5,306.5C 71.2852,304.821 71.9519,303.821 73.5,303.5 Z"/></g>
<g><path style="opacity:0.004" fill="#fefffe" d="M 371.5,304.5 C 372.833,305.167 372.833,305.167 371.5,304.5 Z"/></g>
<g><path style="opacity:0.004" fill="#fefffe" d="M 373.5,305.5 C 374.251,304.427 375.251,304.26 376.5,305C 375.552,305.483 374.552,305.649 373.5,305.5 Z"/></g>
<g><path style="opacity:0.004" fill="#fefffe" d="M 378.5,305.5 C 379.601,304.402 380.934,304.235 382.5,305C 381.207,305.49 379.873,305.657 378.5,305.5 Z"/></g>
<g><path style="opacity:0.004" fill="#fefffe" d="M 384.5,304.5 C 385.833,305.167 385.833,305.167 384.5,304.5 Z"/></g>
<g><path style="opacity:0.922" fill="#b69b91" d="M 126.5,306.5 C 123.713,307.477 120.713,307.81 117.5,307.5C 114.685,305.27 115.018,303.603 118.5,302.5C 121.932,302.658 124.599,303.992 126.5,306.5 Z"/></g>
<g><path style="opacity:1" fill="#e2d6c8" d="M 146.5,308.5 C 146.978,314.274 145.645,319.774 142.5,325C 135.125,325.976 127.791,327.142 120.5,328.5C 120.16,322.792 119.493,317.125 118.5,311.5C 127.773,310.106 137.106,309.106 146.5,308.5 Z"/></g>
<g><path style="opacity:1" fill="#e1d4c7" d="M 109.5,309.5 C 109.5,310.167 109.833,310.5 110.5,310.5C 113.41,316.814 114.743,323.48 114.5,330.5C 110.168,331.097 105.835,331.263 101.5,331C 99.9777,329.084 98.9777,326.917 98.5,324.5C 99.0471,320.022 99.0471,315.355 98.5,310.5C 100.905,310.134 103.238,309.467 105.5,308.5C 106.849,308.846 108.183,309.179 109.5,309.5 Z"/></g>
<g><path style="opacity:0.012" fill="#a68178" d="M 71.5,307.5 C 72.4572,310.335 72.1239,313.001 70.5,315.5C 69.5409,312.67 69.8742,310.004 71.5,307.5 Z"/></g>
<g><path style="opacity:0.957" fill="#a06a53" d="M 285.5,316.5 C 292.825,315.751 293.825,317.418 288.5,321.5C 286.233,320.638 285.233,318.971 285.5,316.5 Z"/></g>
<g><path style="opacity:1" fill="#bfa294" d="M 346.5,313.5 C 347.376,313.369 348.043,313.702 348.5,314.5C 347.174,319.16 344.841,323.16 341.5,326.5C 340.28,326.113 339.613,325.28 339.5,324C 342.447,320.891 344.78,317.391 346.5,313.5 Z"/></g>
<g><path style="opacity:0.369" fill="#70564e" d="M 96.5,336.5 C 95.1667,336.167 93.8333,335.833 92.5,335.5C 92.0652,332.843 91.0652,330.509 89.5,328.5C 89.7086,327.078 90.2086,325.745 91,324.5C 92.3532,328.729 94.1866,332.729 96.5,336.5 Z"/></g>
<g><path style="opacity:0.004" fill="#fefffe" d="M 348.5,330.5 C 348.5,329.833 348.833,329.5 349.5,329.5C 350.791,329.263 351.791,329.596 352.5,330.5C 351.069,330.881 350.236,331.881 350,333.5C 349.283,332.956 348.783,332.289 348.5,331.5C 349.833,331.167 349.833,330.833 348.5,330.5 Z"/></g>
<g><path style="opacity:1" fill="#e1d2c5" d="M 133.5,332.5 C 135.5,332.5 137.5,332.5 139.5,332.5C 137.239,340.282 134.572,347.948 131.5,355.5C 128.232,356.487 124.898,356.82 121.5,356.5C 121.5,349.167 121.5,341.833 121.5,334.5C 125.79,334.802 129.79,334.136 133.5,332.5 Z"/></g>
<g><path style="opacity:0.998" fill="#e2d5c8" d="M 92.5,335.5 C 93.8333,335.833 95.1667,336.167 96.5,336.5C 97.9885,337.939 99.8218,338.605 102,338.5C 106.137,337.763 110.303,337.429 114.5,337.5C 114.5,344.5 114.5,351.5 114.5,358.5C 107.462,358.726 100.462,359.393 93.5,360.5C 92.2739,360.48 91.2739,360.147 90.5,359.5C 90.6066,351.722 91.2732,343.722 92.5,335.5 Z"/></g>
<g><path style="opacity:0.005" fill="#efebd0" d="M 126.5,363.5 C 127.167,363.5 127.5,363.833 127.5,364.5C 127.672,365.492 127.338,366.158 126.5,366.5C 125.508,366.672 124.842,366.338 124.5,365.5C 125.167,364.833 125.833,364.167 126.5,363.5 Z"/></g>
<g><path style="opacity:0.004" fill="#fefffe" d="M 422.5,363.5 C 423.167,363.5 423.833,363.5 424.5,363.5C 424.5,363.833 424.5,364.167 424.5,364.5C 423.348,365.625 422.348,365.625 421.5,364.5C 421.5,363.833 421.833,363.5 422.5,363.5 Z"/></g>
<g><path style="opacity:0.004" fill="#fe0000" d="M 122.5,365.5 C 123.833,366.167 123.833,366.167 122.5,365.5 Z"/></g>
<g><path style="opacity:0.004" fill="#fefffe" d="M 123.5,376.5 C 123.328,377.492 123.662,378.158 124.5,378.5C 124.5,378.833 124.5,379.167 124.5,379.5C 123.883,379.611 123.383,379.944 123,380.5C 122.235,378.934 122.402,377.601 123.5,376.5 Z"/></g>
<g><path style="opacity:0.005" fill="#fefffe" d="M 244.5,380.5 C 245.492,380.328 246.158,380.662 246.5,381.5C 245.833,381.5 245.5,381.833 245.5,382.5C 244.833,382.5 244.5,382.833 244.5,383.5C 243.833,383.5 243.167,383.5 242.5,383.5C 242.833,382.833 243.167,382.167 243.5,381.5C 244.167,381.5 244.5,381.167 244.5,380.5 Z"/></g>
<g><path style="opacity:0.004" fill="#fefffe" d="M 120.5,381.5 C 121.833,382.167 121.833,382.167 120.5,381.5 Z"/></g>
<g><path style="opacity:0.004" fill="#fefffe" d="M 439.5,386.5 C 440.833,387.167 440.833,387.167 439.5,386.5 Z"/></g>
<g><path style="opacity:1" fill="#220d09" d="M 257.5,319.5 C 266.202,328.02 276.535,333.687 288.5,336.5C 289.141,337.482 289.807,338.482 290.5,339.5C 288.019,340.86 288.352,341.86 291.5,342.5C 294.159,341.173 296.826,339.84 299.5,338.5C 298.948,336.997 298.948,335.331 299.5,333.5C 301.331,334.052 302.997,334.052 304.5,333.5C 305.167,334.167 305.833,334.833 306.5,335.5C 310.074,334.113 311.741,335.446 311.5,339.5C 309.836,338.694 308.169,339.027 306.5,340.5C 308.382,340.155 310.382,340.655 312.5,342C 314.106,346.421 312.439,348.754 307.5,349C 311.296,350.944 313.963,349.778 315.5,345.5C 316.75,345.577 317.583,346.244 318,347.5C 319.142,345.382 319.642,343.382 319.5,341.5C 319.032,339.866 318.032,338.7 316.5,338C 317.634,336.984 317.301,336.317 315.5,336C 322.647,335.606 323.981,332.939 319.5,328C 320.579,327.044 321.745,326.211 323,325.5C 326.529,327.429 327.695,330.262 326.5,334C 329.167,334.667 329.167,335.333 326.5,336C 326.888,337.525 326.888,339.192 326.5,341C 327.308,341.308 327.975,341.808 328.5,342.5C 327.609,343.59 326.609,343.59 325.5,342.5C 324.41,343.727 323.076,344.56 321.5,345C 320.117,346.461 320.451,347.294 322.5,347.5C 318.452,356.795 311.785,359.295 302.5,355C 301.54,353.581 300.707,352.081 300,350.5C 302.092,362.272 308.926,370.105 320.5,374C 323.393,375.149 326.393,375.649 329.5,375.5C 329.212,372.134 329.046,368.8 329,365.5C 331.075,363.352 333.408,363.018 336,364.5C 338.568,376.713 339.902,389.046 340,401.5C 338.647,402.685 337.48,404.019 336.5,405.5C 344.3,407.894 348.466,404.894 349,396.5C 350.339,387.3 351.839,378.134 353.5,369C 355.392,366.444 357.725,365.944 360.5,367.5C 360.5,369.833 360.5,372.167 360.5,374.5C 369.26,373.579 377.593,371.245 385.5,367.5C 384.691,365.929 384.357,364.262 384.5,362.5C 386.052,361.378 387.718,360.878 389.5,361C 394.072,368.407 400.072,374.24 407.5,378.5C 408.343,380.173 409.676,381.34 411.5,382C 411.025,383.767 410.025,385.6 408.5,387.5C 401.872,386.04 396.372,382.707 392,377.5C 391.447,388.102 387.947,397.602 381.5,406C 383.134,406.494 384.801,406.66 386.5,406.5C 386.082,407.222 385.416,407.722 384.5,408C 385.167,408.333 385.833,408.667 386.5,409C 390.288,409.435 393.788,409.269 397,408.5C 399.935,410.983 402.935,410.983 406,408.5C 408.195,409.8 410.528,410.8 413,411.5C 413.414,411.043 413.914,410.709 414.5,410.5C 415.216,411.311 416.05,411.978 417,412.5C 421.219,410.095 425.386,410.095 429.5,412.5C 433.469,411.198 437.302,410.531 441,410.5C 441.483,411.448 441.649,412.448 441.5,413.5C 328.43,413.169 215.43,413.502 102.5,414.5C 102.594,411.932 103.928,410.432 106.5,410C 112.749,409.191 118.916,409.358 125,410.5C 130.751,409.69 136.584,409.19 142.5,409C 144,408.167 145.167,407 146,405.5C 147.158,409.22 149.491,410.22 153,408.5C 155.406,410.887 157.906,410.887 160.5,408.5C 174.114,409.808 188.114,409.808 202.5,408.5C 210.318,408.33 217.984,409.33 225.5,411.5C 229.81,409.958 234.31,408.958 239,408.5C 239.772,408.645 240.439,408.978 241,409.5C 242.154,407.043 243.488,407.043 245,409.5C 245.333,409.167 245.667,408.833 246,408.5C 250.382,409.886 254.882,410.886 259.5,411.5C 268.887,410.493 278.221,409.16 287.5,407.5C 286.528,407.407 285.528,407.074 284.5,406.5C 285.264,404.26 286.098,401.927 287,399.5C 289.378,397.291 291.545,394.958 293.5,392.5C 294.927,384.537 296.594,376.37 298.5,368C 294.045,362.253 291.378,355.753 290.5,348.5C 287.402,348.587 287.068,348.087 289.5,347C 283.833,345.333 278.167,343.667 272.5,342C 269.102,340.643 266.102,338.81 263.5,336.5C 264.675,336.719 265.675,336.386 266.5,335.5C 266.167,335.167 265.833,334.833 265.5,334.5C 260.886,332.708 256.886,330.208 253.5,327C 254.316,325.077 254.983,323.077 255.5,321C 255.836,319.97 256.503,319.47 257.5,319.5 Z M 359.5,383.5 C 362.579,385.653 364.579,388.653 365.5,392.5C 364.242,397.125 363.242,401.792 362.5,406.5C 359.813,406.664 357.146,406.497 354.5,406C 357.18,398.768 358.846,391.268 359.5,383.5 Z M 316.5,401.5 C 316.56,402.043 316.893,402.376 317.5,402.5C 318.773,401.743 318.773,401.077 317.5,400.5C 320.86,394.425 324.693,388.759 329,383.5C 329.945,383.905 330.612,384.572 331,385.5C 331.337,388.861 331.837,392.194 332.5,395.5C 330.324,398.854 328.99,402.521 328.5,406.5C 323.156,406.666 317.823,406.499 312.5,406C 314.07,404.603 315.404,403.103 316.5,401.5 Z M 302.5,404.5 C 302.389,405.117 302.056,405.617 301.5,406C 298.773,406.818 296.106,406.652 293.5,405.5C 294.676,403.323 296.51,401.989 299,401.5C 301.535,392.629 303.535,383.629 305,374.5C 308.722,378.725 312.888,382.392 317.5,385.5C 312.827,392.164 307.827,398.497 302.5,404.5 Z M 311.5,339.5 C 314.044,340.708 315.378,342.708 315.5,345.5C 313.963,349.778 311.296,350.944 307.5,349C 312.439,348.754 314.106,346.421 312.5,342C 310.382,340.655 308.382,340.155 306.5,340.5C 308.169,339.027 309.836,338.694 311.5,339.5 Z"/></g>
<g><path style="opacity:0.004" fill="#fefffe" d="M 317.5,400.5 C 318.773,401.077 318.773,401.743 317.5,402.5C 316.893,402.376 316.56,402.043 316.5,401.5C 317.167,401.5 317.5,401.167 317.5,400.5 Z"/></g>
<g><path style="opacity:1" fill="#e1d3c8" d="M 384.5,362.5 C 384.357,364.262 384.691,365.929 385.5,367.5C 377.593,371.245 369.26,373.579 360.5,374.5C 360.5,372.167 360.5,369.833 360.5,367.5C 368.594,366.142 376.594,364.475 384.5,362.5 Z"/></g>
<g><path style="opacity:0.859" fill="#281814" d="M 73.5,406.5 C 77.4866,406.652 78.9866,408.652 78,412.5C 74.7088,415.437 72.5421,414.77 71.5,410.5C 71.8029,408.886 72.4695,407.552 73.5,406.5 Z"/></g>
<g><path style="opacity:1" fill="#2a1511" d="M 88.5,404.5 C 94.06,405.956 95.56,409.289 93,414.5C 87.6189,417.834 84.1189,416.334 82.5,410C 83.5733,408.584 83.5733,407.25 82.5,406C 84.7078,405.809 86.7078,405.309 88.5,404.5 Z"/></g>
<g><path style="opacity:1" fill="#3b1d13" d="M 441.5,413.5 C 441.5,413.833 441.5,414.167 441.5,414.5C 441.5,414.833 441.5,415.167 441.5,415.5C 329.209,414.17 216.875,414.17 104.5,415.5C 103.508,415.672 102.842,415.338 102.5,414.5C 215.43,413.502 328.43,413.169 441.5,413.5 Z"/></g>
<g><path style="opacity:0.518" fill="#72554e" d="M 441.5,415.5 C 436.1,416.187 430.6,416.854 425,417.5C 318.211,416.941 211.377,416.274 104.5,415.5C 216.875,414.17 329.209,414.17 441.5,415.5 Z"/></g>
</svg>
