<?xml version="1.0" encoding="UTF-8" standalone="no"?>
<!DOCTYPE svg PUBLIC "-//W3C//DTD SVG 1.1//EN" "http://www.w3.org/Graphics/SVG/1.1/DTD/svg11.dtd">
<svg xmlns="http://www.w3.org/2000/svg" version="1.1" viewBox="0.00 0.00 500.00 500.00">
<circle fill="#39fee2" cx="156.92" cy="129.53" r="34.20"/>
<circle fill="#39fee2" cx="257.60" cy="133.54" r="34.26"/>
<circle fill="#39fee2" cx="68.79" cy="178.54" r="34.21"/>
<path fill="#39fee2" d="
  M 431.12 311.47
  C 440.30 302.35 448.87 291.56 456.78 281.65
  A 0.95 0.95 0.0 0 1 458.20 281.56
  L 458.41 281.77
  Q 459.39 282.74 458.53 283.82
  Q 447.78 297.19 436.62 311.44
  C 435.34 313.07 434.60 314.71 435.16 316.84
  Q 439.29 332.60 439.79 351.54
  Q 439.97 358.14 438.14 365.56
  Q 436.50 372.18 432.80 377.49
  Q 429.79 381.81 423.66 382.85
  Q 417.44 383.91 414.65 378.38
  C 410.93 371.02 409.65 362.54 409.06 354.25
  Q 407.67 334.67 408.02 313.72
  C 408.08 310.15 408.32 306.95 407.72 303.32
  Q 407.53 302.18 406.99 303.21
  C 404.78 307.42 402.97 311.62 399.85 315.30
  C 395.92 319.93 390.72 322.16 384.47 322.21
  C 375.00 322.29 372.06 313.41 370.91 305.83
  Q 370.67 304.21 369.81 305.60
  C 361.98 318.28 353.07 330.30 337.58 332.67
  C 331.91 333.53 327.76 329.80 326.17 324.46
  C 323.63 315.90 323.12 306.75 322.64 297.59
  Q 322.34 292.01 322.62 285.72
  Q 323.05 276.05 323.10 265.48
  Q 323.12 260.56 324.05 255.35
  A 1.18 1.18 0.0 0 0 322.95 253.96
  Q 315.67 253.54 308.88 254.06
  A 0.99 0.99 0.0 0 0 308.02 255.34
  Q 311.90 267.64 312.59 279.65
  A 3.59 3.51 56.4 0 1 312.27 281.34
  Q 304.47 298.51 293.16 313.10
  C 291.58 315.14 285.29 321.39 283.24 316.34
  Q 281.90 313.01 281.55 309.83
  Q 280.76 302.57 280.76 293.16
  Q 280.76 273.63 281.21 254.41
  A 2.37 2.36 -3.3 0 1 283.25 252.13
  L 298.48 250.02
  Q 301.01 249.67 300.16 247.25
  Q 300.02 246.84 299.95 246.41
  Q 299.54 243.66 296.77 243.94
  L 283.12 245.32
  A 1.07 1.06 87.9 0 1 281.95 244.23
  Q 282.10 238.43 282.68 232.08
  Q 282.93 229.38 282.50 226.42
  Q 281.04 216.40 270.98 213.85
  Q 265.28 212.41 260.80 213.40
  Q 258.73 213.86 259.47 215.86
  Q 260.25 217.96 260.05 220.34
  Q 258.99 232.58 258.81 245.65
  A 1.24 1.24 0.0 0 1 257.73 246.87
  L 240.36 249.15
  Q 239.04 249.32 238.99 250.64
  L 238.91 252.44
  A 2.43 2.43 0.0 0 0 241.28 254.97
  Q 249.16 255.15 256.93 253.93
  Q 257.94 253.77 258.00 254.79
  Q 258.14 257.36 257.96 259.82
  Q 256.11 285.83 257.60 307.32
  Q 258.07 314.21 259.60 321.19
  C 261.03 327.71 263.88 333.73 271.87 333.11
  C 282.53 332.27 291.56 325.38 298.09 316.66
  C 303.77 309.07 308.39 301.43 312.49 293.26
  Q 312.86 292.52 312.88 293.35
  Q 312.93 294.91 312.80 296.50
  Q 308.90 342.90 276.27 374.41
  Q 268.95 381.49 260.98 386.79
  Q 222.30 412.54 176.00 405.74
  C 150.22 401.95 125.63 388.23 108.29 369.68
  Q 85.94 345.76 78.81 312.32
  C 72.71 283.75 77.71 253.43 93.11 228.06
  C 111.85 197.18 141.43 177.27 177.17 171.67
  C 200.48 168.02 224.37 171.57 245.41 181.73
  Q 281.88 199.35 300.95 236.71
  C 302.95 240.62 304.36 244.85 305.86 249.07
  Q 306.16 249.88 307.00 249.71
  Q 314.36 248.29 322.20 247.93
  A 1.69 1.69 0.0 0 0 323.81 246.45
  C 325.17 236.03 325.05 225.27 325.11 214.80
  A 0.89 0.89 0.0 0 1 325.97 213.91
  C 329.40 213.77 333.19 213.69 336.52 214.60
  Q 346.56 217.38 347.11 229.36
  Q 347.42 236.31 346.07 243.42
  A 1.40 1.40 0.0 0 0 347.45 245.08
  L 362.17 245.00
  Q 363.94 244.99 364.44 246.68
  L 364.69 247.50
  Q 365.19 249.18 363.46 249.44
  Q 354.89 250.73 348.16 251.34
  Q 347.31 251.42 346.70 252.03
  Q 346.12 252.62 346.03 253.93
  Q 344.52 276.91 345.06 299.37
  C 345.13 302.14 345.54 321.74 352.08 318.56
  Q 355.48 316.91 357.64 314.42
  Q 362.23 309.13 367.63 300.67
  C 370.28 296.50 371.48 292.97 371.93 288.21
  Q 372.84 278.58 374.25 268.66
  A 0.81 0.80 2.2 0 1 375.00 267.97
  Q 381.39 267.54 387.20 269.81
  Q 393.84 272.40 392.63 280.70
  Q 390.99 291.91 390.85 301.35
  C 390.81 303.85 390.75 308.28 392.15 310.40
  A 1.65 1.65 0.0 0 0 394.19 311.00
  C 402.76 307.25 406.52 296.22 406.88 287.27
  Q 407.12 281.05 407.27 274.58
  A 0.72 0.71 83.0 0 1 407.79 273.90
  Q 413.52 272.31 419.33 273.69
  C 427.73 275.70 430.23 282.53 430.10 290.38
  Q 429.92 301.65 429.95 310.98
  Q 429.96 312.62 431.12 311.47
  Z
  M 162.14 249.36
  Q 162.42 245.50 162.88 241.81
  C 164.27 230.62 160.97 219.86 148.20 218.09
  Q 143.07 217.38 137.63 218.15
  A 0.64 0.64 0.0 0 0 137.08 218.77
  Q 137.01 232.61 136.04 246.01
  Q 134.87 261.96 133.57 279.25
  Q 132.13 298.32 134.03 317.78
  C 134.78 325.43 138.64 338.59 148.52 336.45
  C 153.79 335.30 158.83 333.49 162.32 329.17
  Q 162.97 328.36 162.56 327.40
  Q 160.84 323.40 160.47 318.94
  Q 159.45 306.65 159.95 294.76
  A 2.83 2.81 76.4 0 1 161.36 292.44
  Q 169.47 287.77 175.43 280.83
  C 183.02 272.01 189.30 262.21 191.48 250.79
  C 192.35 246.20 192.74 240.33 189.33 236.68
  C 185.69 232.78 178.54 233.05 174.44 235.69
  Q 167.58 240.09 162.60 249.49
  Q 162.06 250.51 162.14 249.36
  Z
  M 186.09 302.61
  C 185.23 310.65 185.14 318.59 191.43 324.14
  Q 194.31 326.67 198.53 327.03
  C 207.35 327.79 214.42 324.90 221.41 320.38
  C 234.96 311.64 244.59 300.15 252.30 286.07
  Q 252.84 285.09 252.02 284.32
  L 250.85 283.23
  A 1.20 1.20 0.0 0 0 249.04 283.43
  C 243.72 291.20 221.09 320.17 210.00 314.56
  Q 209.60 314.35 209.43 313.93
  Q 207.54 309.27 208.05 304.07
  A 0.89 0.88 2.2 0 1 208.91 303.28
  C 218.16 303.09 226.19 299.91 229.34 290.53
  Q 232.01 282.58 225.72 277.10
  C 223.01 274.74 217.94 274.08 214.37 274.40
  C 205.92 275.15 197.27 278.48 192.51 285.55
  Q 187.05 293.66 186.09 302.61
  Z
  M 434.66 332.26
  C 434.45 326.27 433.17 320.76 431.03 315.14
  A 0.39 0.38 57.3 0 0 430.40 315.00
  Q 430.00 315.37 430.00 315.92
  C 430.01 321.05 429.87 326.02 430.25 331.09
  Q 431.11 342.61 431.29 353.71
  Q 431.31 355.19 432.22 356.86
  Q 432.51 357.41 432.71 356.82
  Q 434.00 353.13 434.31 349.84
  Q 435.02 342.32 434.66 332.26
  Z"
/>
<path fill="#39fee2" d="
  M 168.93 251.66
  C 170.33 247.78 173.21 242.09 177.18 240.32
  A 2.24 2.23 -24.9 0 1 180.09 241.38
  C 181.39 244.02 181.51 246.57 180.96 249.44
  Q 178.64 261.41 171.39 271.95
  C 168.37 276.34 165.09 280.62 160.54 283.61
  Q 160.04 283.94 160.16 283.35
  Q 163.20 267.66 168.93 251.66
  Z"
/>
<path fill="#39fee2" d="
  M 208.89 298.28
  C 209.72 293.72 211.46 288.51 214.67 285.35
  Q 216.19 283.86 218.72 283.86
  C 224.27 283.85 224.58 288.68 222.44 292.44
  Q 218.70 299.01 209.39 298.88
  A 0.51 0.51 0.0 0 1 208.89 298.28
  Z"
/>
</svg>
