<?xml version="1.0" encoding="UTF-8"?>
<!DOCTYPE svg PUBLIC "-//W3C//DTD SVG 1.1//EN" "http://www.w3.org/Graphics/SVG/1.1/DTD/svg11.dtd">
<svg xmlns="http://www.w3.org/2000/svg" version="1.1" width="500px" height="500px" style="shape-rendering:geometricPrecision; text-rendering:geometricPrecision; image-rendering:optimizeQuality; fill-rule:evenodd; clip-rule:evenodd" xmlns:xlink="http://www.w3.org/1999/xlink">
<g><path style="opacity:1" fill="#39fee2" d="M 153.5,94.5 C 181.219,97.0456 193.052,112.046 189,139.5C 180.209,159.145 165.376,166.312 144.5,161C 127.564,153.304 120.398,140.137 123,121.5C 127.788,106.201 137.955,97.2005 153.5,94.5 Z"/></g>
<g><path style="opacity:1" fill="#39fee2" d="M 253.5,98.5 C 276.159,98.9923 288.826,110.492 291.5,133C 289.396,153.604 278.062,165.104 257.5,167.5C 236.42,165.586 224.753,154.086 222.5,133C 224.332,113.676 234.665,102.176 253.5,98.5 Z"/></g>
<g><path style="opacity:1" fill="#39fee2" d="M 65.5,143.5 C 87.6533,144.487 99.9866,155.987 102.5,178C 98.7797,203.532 84.113,214.532 58.5,211C 38.6991,202.567 31.1991,187.733 36,166.5C 41.6485,153.34 51.4818,145.673 65.5,143.5 Z"/></g>
<g><path style="opacity:1" fill="#39fee2" d="M 188.5,169.5 C 245.451,170.489 284.785,197.156 306.5,249.5C 312.022,248.457 317.522,247.457 323,246.5C 324.319,235.544 324.819,224.544 324.5,213.5C 339.349,211.358 346.683,217.691 346.5,232.5C 346.332,236.525 345.999,240.525 345.5,244.5C 351.537,244.171 357.537,244.504 363.5,245.5C 365.022,247.156 364.689,248.323 362.5,249C 357.123,249.672 351.789,250.505 346.5,251.5C 344.063,271.81 343.896,292.144 346,312.5C 346.297,315.438 347.797,317.438 350.5,318.5C 352.799,317.365 354.966,316.032 357,314.5C 361.58,308.34 365.914,302.007 370,295.5C 371.496,286.204 372.662,276.871 373.5,267.5C 380.128,266.657 385.961,268.323 391,272.5C 391.808,274.423 392.308,276.423 392.5,278.5C 390.723,288.439 390.223,298.439 391,308.5C 391.388,309.428 392.055,310.095 393,310.5C 400.814,306.229 405.148,299.563 406,290.5C 406.499,284.843 406.666,279.176 406.5,273.5C 414.38,271.179 421.214,272.845 427,278.5C 427.862,280.087 428.529,281.754 429,283.5C 429.333,292.833 429.667,302.167 430,311.5C 439.708,301.728 448.708,291.395 457,280.5C 457.692,281.025 458.192,281.692 458.5,282.5C 450.857,292.643 443.024,302.643 435,312.5C 436.959,325.223 438.459,338.056 439.5,351C 439.834,362.027 436.501,371.694 429.5,380C 424.436,383.389 419.603,383.222 415,379.5C 412.739,375.05 411.072,370.383 410,365.5C 408.051,344.554 407.051,323.554 407,302.5C 404.584,307.001 401.917,311.334 399,315.5C 383.594,326.608 373.927,322.941 370,304.5C 364.597,314.57 357.097,322.737 347.5,329C 333.583,336.144 325.75,331.977 324,316.5C 321.612,295.544 321.446,274.544 323.5,253.5C 318.167,253.5 312.833,253.5 307.5,253.5C 309.978,262.381 311.478,271.381 312,280.5C 306.674,291.827 300.341,302.494 293,312.5C 286.562,320.058 282.562,319.058 281,309.5C 280.333,290.833 280.333,272.167 281,253.5C 281.839,252.376 283.006,251.709 284.5,251.5C 289.484,250.645 294.484,249.978 299.5,249.5C 299.739,247.533 299.406,245.699 298.5,244C 292.852,244.03 287.185,244.197 281.5,244.5C 281.382,239.637 281.715,234.803 282.5,230C 281.957,218.625 275.957,212.791 264.5,212.5C 262.192,212.365 260.192,213.031 258.5,214.5C 259.107,216.775 259.441,219.109 259.5,221.5C 258.889,229.493 258.389,237.493 258,245.5C 251.643,247.192 245.143,248.192 238.5,248.5C 238.261,250.467 238.594,252.301 239.5,254C 245.516,254.499 251.516,254.332 257.5,253.5C 256.55,271.158 256.384,288.825 257,306.5C 257.384,314.144 259.051,321.477 262,328.5C 265.743,332.259 270.243,333.426 275.5,332C 285.392,328.967 293.226,323.133 299,314.5C 303.837,307.496 308.171,300.163 312,292.5C 307.567,347.271 279.4,383.771 227.5,402C 179.704,413.681 138.871,401.847 105,366.5C 70.8629,322.457 66.8629,275.791 93,226.5C 115.499,191.995 147.332,172.995 188.5,169.5 Z M 136.5,217.5 C 145.06,215.961 152.56,217.961 159,223.5C 160.275,225.717 161.275,228.051 162,230.5C 162.424,236.862 162.424,243.195 162,249.5C 165.112,242.721 169.945,237.555 176.5,234C 186.077,231.61 191.077,235.277 191.5,245C 188.127,265.583 177.627,281.417 160,292.5C 159.333,301.167 159.333,309.833 160,318.5C 160.197,321.692 161.03,324.692 162.5,327.5C 156.952,334.292 149.952,336.792 141.5,335C 135.546,328.38 132.712,320.547 133,311.5C 132.333,300.167 132.333,288.833 133,277.5C 134.942,257.541 136.108,237.541 136.5,217.5 Z M 213.5,273.5 C 224.713,273.21 229.88,278.543 229,289.5C 225.079,299.05 217.912,303.383 207.5,302.5C 207.263,306.273 207.763,309.94 209,313.5C 211.401,314.602 213.901,314.769 216.5,314C 229.454,306.046 240.121,295.712 248.5,283C 250.201,282.655 251.534,283.322 252.5,285C 245.319,297.182 236.319,307.849 225.5,317C 216.758,324.248 206.758,327.248 195.5,326C 190.6,324.098 187.433,320.598 186,315.5C 183.541,301.822 187.041,289.989 196.5,280C 201.849,276.722 207.515,274.555 213.5,273.5 Z M 429.5,314.5 C 432.055,318.669 433.555,323.335 434,328.5C 435.011,337.971 434.344,347.304 432,356.5C 430.238,342.61 429.405,328.61 429.5,314.5 Z"/></g>
<g><path style="opacity:1" fill="#3cfee2" d="M 176.5,239.5 C 179.94,240.449 181.274,242.782 180.5,246.5C 178.328,261.519 171.494,273.853 160,283.5C 161.942,271.987 164.942,260.654 169,249.5C 170.803,245.523 173.303,242.189 176.5,239.5 Z"/></g>
<g><path style="opacity:1" fill="#3cfee2" d="M 215.5,283.5 C 222.227,282.648 224.393,285.315 222,291.5C 218.997,296.558 214.497,298.891 208.5,298.5C 208.979,292.546 211.313,287.546 215.5,283.5 Z"/></g>
</svg>
